<svg width="82" height="87" viewBox="0 0 82 87" fill="none" xmlns="http://www.w3.org/2000/svg">
<path id="&#208;&#155;&#208;&#190;&#208;&#179;&#208;&#190; 1" fill-rule="evenodd" clip-rule="evenodd" d="M60.654 1.4055C62.9831 8.49643 63.1367 14.781 61.1148 20.2673C59.6519 24.2369 57.176 27.5942 53.5284 30.5545C52.8221 31.1277 52.6318 31.2379 52.4282 31.1913C52.2927 31.1605 51.9021 31.0721 51.5601 30.9951C50.7546 30.8136 49.3661 30.8125 48.1717 30.9922C47.6499 31.0707 47.2069 31.119 47.1874 31.0994C47.0998 31.012 46.9561 27.5608 47.0075 26.7819C47.1942 23.9583 48.5054 22.2662 51.053 21.5613C51.7148 21.3782 52.0317 21.3554 53.8562 21.3602C55.4724 21.3643 56.1489 21.4067 57.0134 21.558C57.6185 21.664 58.1247 21.7411 58.1382 21.7294C58.2002 21.6758 57.5652 20.8437 57.104 20.3741C55.9503 19.1996 54.1443 18.4771 51.4981 18.1315L50.5632 18.0093L49.6932 17.1818C48.6899 16.2273 48.2939 15.958 47.4855 15.6797C46.554 15.3591 45.6829 15.2453 44.6278 15.3062C41.7091 15.4748 39.1324 17.3032 37.5335 20.3403L37.2569 20.8657L37.2294 19.9202C37.1368 16.7428 38.8398 11.1079 40.6788 8.50751C41.1867 7.78924 42.0895 6.84925 42.5364 6.57355C43.0307 6.26844 42.9096 6.25573 42.3551 6.55445C41.6769 6.91965 40.5272 8.08356 39.8722 9.06798C38.6815 10.8571 37.7484 13.0945 37.0697 15.7877L36.6642 17.3966L36.6018 16.8006C36.3893 14.771 36.7615 10.8753 37.3674 8.78703C37.8755 7.036 38.4979 5.79777 39.3102 4.92197C39.5491 4.66443 39.654 4.50136 39.5434 4.55954C39.2139 4.73273 38.2933 5.78144 37.9353 6.39148C37.0934 7.82573 36.5591 9.45658 36.1507 11.8383C35.8919 13.3475 35.7894 16.9261 35.9586 18.5446C36.0873 19.7766 36.3997 21.3143 36.5999 21.7015C36.7924 22.074 37.2641 22.074 37.416 21.7015C38.0774 20.081 38.7569 19.0048 39.7523 18.0012C41.6725 16.0651 44.3244 15.2823 46.8242 15.9138C47.7826 16.1559 48.3094 16.4744 49.3708 17.4536L50.3865 18.3907L51.5018 18.5572C54.0177 18.9327 55.5734 19.5215 56.6298 20.498C57.2095 21.0339 57.3455 21.2555 57.0373 21.1622C56.0214 20.8545 52.6254 20.8177 51.273 21.0997C49.5724 21.4544 48.2094 22.3301 47.5142 23.5145C46.7454 24.8243 46.5031 26.4986 46.6845 29.2452C46.753 30.2834 46.804 31.1596 46.7976 31.1925C46.7911 31.2253 46.4582 31.3944 46.0577 31.5682C44.6945 32.16 43.4663 33.1374 42.1014 34.7172L41.6061 35.2904L41.3102 34.956C38.9429 32.2804 37.2277 31.2106 34.7094 30.8391C33.6865 30.6882 32.9932 30.3457 32.3624 29.6798C31.4219 28.6868 30.8404 27.1545 30.5551 24.9171C30.4227 23.8803 30.4017 23.1714 30.4445 21.2C30.5426 16.6771 31.2646 12.0734 33.1532 3.92495C33.3401 3.11908 33.4746 2.4415 33.4523 2.41924C33.3798 2.34683 32.4894 2.779 31.8036 3.21957C29.1167 4.94566 26.3104 8.39078 24.2587 12.4821C23.3123 14.3694 22.4252 16.8827 22.2437 18.1909C22.1197 19.0861 22.0788 19.0957 21.8427 18.2856C21.4853 17.0595 21.0604 14.9347 20.9371 13.7582C20.8043 12.4905 20.8722 10.459 21.0779 9.54657C21.1547 9.20553 21.2054 8.91437 21.1906 8.89956C21.1283 8.83737 19.533 10.5125 18.9833 11.2173C17.1328 13.5899 15.7847 16.5333 15.0234 19.8626C14.2547 23.225 13.9956 26.327 14.2903 28.6395C14.3795 29.339 14.4308 29.933 14.4043 29.9594C14.2937 30.0699 13.3386 28.6106 12.7666 27.4571C12.1017 26.1162 11.2765 23.7508 10.842 21.9403C10.6938 21.323 10.5445 20.8179 10.51 20.8179C10.3701 20.8179 9.15972 23.4266 8.80372 24.4957C8.05585 26.7412 7.97978 27.2901 7.99031 30.3707C8.00255 33.968 8.17801 35.1978 8.94215 37.0427C9.47466 38.3283 9.47993 38.2751 8.85414 37.9322C8.55525 37.7684 8.04283 37.4544 7.71534 37.2344C7.10658 36.8254 5.22094 35.0006 4.52397 34.146L4.13603 33.6704L4.0214 34.4326C3.68052 36.6997 3.6651 38.246 3.96513 40.098C4.38169 42.6696 5.68584 45.2678 7.50123 47.1427C7.94927 47.6054 8.31587 47.9974 8.31587 48.0137C8.31587 48.0933 7.11126 48.0265 6.27412 47.9005C4.69197 47.6623 2.55761 46.8375 0.980631 45.8546L0.518534 45.5667L0.489909 45.8797C0.398445 46.8798 1.02194 49.3117 1.71662 50.6647C2.81409 52.8022 4.88168 54.6892 7.47776 55.9228L8.54167 56.4284L8.16566 56.6169C7.64558 56.8778 6.66542 57.1836 5.92405 57.3163C5.20469 57.445 3.14206 57.4516 2.40806 57.3275C2.13185 57.2808 1.90577 57.2644 1.90577 57.2913C1.90577 57.4586 3.18398 59.7277 3.77256 60.6052C5.73673 63.5336 7.93835 64.9855 10.7255 65.1903C11.1629 65.2225 11.8223 65.2089 12.1906 65.1601C12.559 65.1114 12.8743 65.0836 12.8913 65.0983C12.9084 65.113 12.859 65.2472 12.7816 65.3966C12.5643 65.816 11.5672 66.7159 11.0043 67.0007C10.3684 67.3224 9.19426 67.6265 8.5876 67.6265C8.33291 67.6265 8.12452 67.6652 8.12452 67.7126C8.12452 67.8791 9.01209 68.975 9.7173 69.6791C10.5724 70.5328 11.8365 71.398 12.8361 71.8135C14.6444 72.5652 17.4898 72.8907 19.1888 72.5403C19.5867 72.4582 19.9267 72.4055 19.9443 72.423C20.0241 72.5027 19.4708 73.6553 19.0753 74.2332C18.5683 74.9741 17.5311 75.9881 16.6055 76.6475L15.9591 77.1081L16.2754 77.3023C16.9397 77.7104 18.3455 78.311 19.0996 78.509C20.205 78.7991 21.5475 78.8622 22.6229 78.6745C23.3639 78.5452 24.7122 78.1523 25.2739 77.9021C25.5253 77.7901 25.4863 77.9984 25.1082 78.7862C24.6581 79.724 24.2858 80.2514 23.4949 81.0711L22.8276 81.7627L23.6322 82.1391C24.8518 82.7095 25.8581 82.9391 27.1156 82.934C28.7227 82.9273 30.0615 82.5609 31.7156 81.6751L32.393 81.3124L32.9524 82.0683C34.3802 83.9979 36.3666 85.3045 38.7399 85.8751C39.4265 86.0403 40.0231 86.1036 41.1795 86.1344C42.5397 86.1706 44.124 86.0688 44.2564 85.9366C44.2827 85.9103 43.9011 85.2725 43.4081 84.5193C42.3833 82.9531 42.0884 82.4807 42.0884 82.4053C42.0884 82.376 42.4679 82.5164 42.9318 82.7173C46.1171 84.0967 49.7205 84.5023 54.3346 84.0008C55.7692 83.8449 58.9342 83.3113 59.047 83.2064C59.0867 83.1694 58.8069 83.06 58.4252 82.9632C54.8679 82.0617 51.3869 80.3809 48.7377 78.2856C46.2523 76.3197 44.0815 73.6499 42.3233 70.3968C41.6724 69.1927 40.6533 67.0254 40.6533 66.8456C40.6533 66.7922 40.8579 66.9034 41.1078 67.0928C43.8696 69.1851 47.4917 70.3453 51.9112 70.5531L53.2668 70.6168L52.2906 69.6232C51.6444 68.9654 51.2074 68.4255 50.9976 68.0258C50.8232 67.6937 50.6995 67.4032 50.7225 67.3801C50.7456 67.3571 51.0404 67.4627 51.3775 67.6148C51.7147 67.7669 52.2489 67.942 52.5646 68.0039C52.8803 68.0658 53.3324 68.1779 53.5692 68.253C54.3814 68.5105 55.7284 68.7654 56.8201 68.8682C58.7267 69.0477 60.9477 68.7118 62.604 67.9935C63.9782 67.3974 65.9409 66.0729 66.8139 65.1524L67.0948 64.8562L66.3355 64.8555C65.9043 64.8551 65.2256 64.771 64.7648 64.6607C63.9827 64.4734 63.1365 64.0798 63.1365 63.903C63.1365 63.8561 63.5777 63.8002 64.1171 63.779C66.1363 63.6994 68.8861 62.7511 70.5511 61.5601C70.8669 61.3344 71.386 60.8981 71.7048 60.5908C72.3141 60.0033 73.1379 58.953 73.0546 58.8698C73.0276 58.8429 72.7035 58.8678 72.3341 58.925C71.3323 59.0802 69.8328 59.0348 69.834 58.8493C69.8342 58.8168 70.0385 58.7063 70.288 58.6038C70.5376 58.5013 70.8399 58.3194 70.9598 58.1997C71.0797 58.0799 71.4459 57.8022 71.7734 57.5825C73.541 56.3968 75.2426 54.7748 76.3881 53.1833C76.9216 52.4419 78.4022 49.6891 78.3145 49.6015C78.2999 49.5869 77.8483 49.7682 77.3111 50.0042C76.2687 50.4623 74.7159 50.9091 74.1667 50.9091H73.8327L74.5837 50.3025C76.1111 49.069 77.9352 47.0859 78.9904 45.5118C80.2267 43.6678 81.1021 41.4837 81.3624 39.5941L81.4274 39.1213L81.1078 39.382C79.7096 40.5221 78.2434 41.4584 77.0228 41.9905C76.3047 42.3035 76.0046 42.382 76.0687 42.24C76.0865 42.2005 76.2892 41.7815 76.5192 41.3086C77.7813 38.7136 78.1863 37.7502 78.7272 36.0566C79.3977 33.9564 79.8806 31.2868 80.0666 28.6512C80.2226 26.4407 80.3048 26.5464 79.282 27.6417C78.7955 28.1626 77.9894 28.9517 77.4905 29.3952C76.61 30.1779 75.5016 30.999 75.4266 30.9241C75.4063 30.9037 75.4548 30.6743 75.5345 30.4139C75.7724 29.6372 76.2149 27.7114 76.3785 26.7406C76.7977 24.2529 76.9488 20.4359 76.7193 18.1294C76.5477 16.4051 75.9849 13.58 75.7642 13.3353C75.6875 13.2503 75.4322 13.6489 73.7558 16.4714C72.6988 18.251 71.5782 19.9585 71.4679 19.9578C71.4372 19.9575 71.4056 19.3403 71.3976 18.5862C71.3548 14.57 70.6969 11.5703 69.2137 8.62874C67.3591 4.95044 64.5471 2.20268 60.588 0.200226L60.1923 0L60.654 1.4055ZM31.7079 31.1783C26.5731 32.1109 23.4903 36.7782 23.2677 43.9559C23.0569 50.7571 25.7813 56.8909 30.799 60.9114C34.013 63.4865 38.6965 65.4526 41.6101 65.4494C43.408 65.4475 46.6691 64.3871 49.194 62.9833C56.137 59.1232 60.1156 52.3542 60.1091 44.4133C60.1032 37.3296 57.268 32.8257 51.9498 31.4519C51.1132 31.2358 50.9055 31.2192 49.5509 31.2611C46.4551 31.3567 44.8405 32.167 42.5688 34.7649C42.1323 35.2641 41.7421 35.7092 41.7016 35.7542C41.661 35.7992 41.4629 35.6488 41.2611 35.4199C39.7414 33.6958 38.4636 32.5767 37.4114 32.0483C35.7188 31.1985 33.4781 30.8567 31.7079 31.1783ZM28.1172 35.9522C26.5286 36.9463 25.672 39.5633 25.9242 42.6519C26.1564 45.4973 26.9479 47.4209 28.5882 49.1266C31.1074 51.7463 34.8993 51.8814 37.4698 49.4434C38.3146 48.6422 38.8593 47.9049 39.3861 46.8492C40.3452 44.9282 40.7694 42.7847 40.5617 40.9103C40.375 39.225 39.8954 37.8819 39.1058 36.8326C38.7411 36.3479 37.7979 35.6247 37.5305 35.6247C37.2416 35.6247 36.6444 36.0161 36.2285 36.478C35.8251 36.926 35.2957 37.9945 35.2957 38.3607C35.2957 38.4877 35.231 38.5036 34.9369 38.4496C33.8878 38.2571 33.1308 38.2172 32.3933 38.3156C31.9637 38.3729 31.5328 38.425 31.4358 38.4313C31.3028 38.44 31.2056 38.2955 31.0405 37.8435C30.5694 36.5544 29.6565 35.6247 28.8617 35.6247C28.7399 35.6247 28.405 35.7721 28.1172 35.9522ZM47.5896 43.714C44.2064 43.8929 42.1462 44.7966 41.2959 46.475C40.3134 48.4139 40.2165 51.6331 41.0501 54.6347C41.6398 56.7581 42.504 57.6737 43.5443 57.2772L43.954 57.121L43.9234 53.2031L43.8928 49.2852H44.2013H44.5097L44.4458 52.1271C44.4106 53.6902 44.4221 55.5152 44.4713 56.1827C44.5542 57.3073 44.5821 57.4274 44.8528 57.8202C45.527 58.7987 46.4614 59.3465 47.6565 59.464C49.3316 59.6288 50.8873 58.8867 51.6146 57.5758L51.8949 57.0707L51.9246 53.0824L51.9542 49.0941H52.1771H52.4001L52.4719 51.0763C52.5114 52.1666 52.5172 53.9257 52.4846 54.9857L52.4256 56.9129L52.8618 57.0057C54.3183 57.3159 55.0403 56.1438 55.4376 52.8248C55.6608 50.9595 55.5956 48.5066 55.2952 47.4701C54.9073 46.1312 54.0844 45.0141 53.1283 44.5284C51.9977 43.9541 49.631 43.606 47.5896 43.714Z" fill="#F07E00"/>
</svg>
