<svg width="150" height="151" viewBox="0 0 150 151" fill="none" xmlns="http://www.w3.org/2000/svg">
<g id="&#208;&#155;&#208;&#190;&#208;&#179;&#208;&#190;">
<circle id="Ellipse 10" cx="75" cy="75" r="74.5" fill="white" stroke="#F07E00"/>
<path id="&#208;&#155;&#208;&#190;&#208;&#179;&#208;&#190; 1" fill-rule="evenodd" clip-rule="evenodd" d="M71.7193 0.0268112C67.3558 0.270535 63.9935 0.684895 60.0951 1.45916C46.2405 4.21072 33.0843 11.1309 22.9842 20.9795C19.5927 24.2866 17.2513 26.9449 14.7297 30.351C3.0003 46.195 -1.98962 65.8564 0.738882 85.4779C3.33564 104.153 12.8972 121.102 27.6619 133.203C35.51 139.636 44.9758 144.538 54.9287 147.326C67.0553 150.721 80.5786 150.915 92.9236 147.871C104.575 144.997 115.272 139.396 124.483 131.343C127.975 128.291 132.071 123.864 134.922 120.063C143.452 108.689 148.521 95.3298 149.694 81.1308C149.846 79.2921 150.006 76.0176 150 74.8729C149.992 73.4053 149.823 70.2793 149.647 68.3185C148.295 53.3364 142.646 39.4185 133.151 27.6759C131.626 25.791 129.023 22.9276 127.56 21.5262C124.822 18.9049 123.228 17.5095 120.963 15.7517C109.291 6.69487 95.8389 1.46928 80.9297 0.200504C79.3344 0.0647408 73.1333 -0.0522008 71.7193 0.0268112ZM71.4426 1.11588C69.4413 1.22002 67.8663 1.35731 65.8833 1.60075C44.5363 4.22056 25.4009 16.0758 13.3867 34.1249C6.79537 44.0271 2.66354 55.5764 1.45796 67.4685C0.911189 72.8619 1.02045 79.7201 1.73579 84.9047C3.60678 98.4666 8.90036 110.768 17.4619 121.449C19.7795 124.34 23.9553 128.658 26.7052 131.006C32.943 136.332 39.4 140.312 46.7965 143.391C53.6799 146.257 61.2099 148.068 68.9927 148.73C72.0665 148.992 77.7649 148.992 80.9518 148.731C94.3018 147.637 106.888 143.039 117.834 135.259C119.426 134.128 122.412 131.76 123.813 130.518C125.266 129.23 128.531 125.997 129.786 124.602C140.068 113.179 146.47 99.1784 148.302 84.1111C148.742 80.4875 148.784 79.7003 148.783 74.9685C148.783 70.1154 148.706 68.8083 148.203 65.0563C145.668 46.1728 135.941 29.0765 120.895 17.0589C110.027 8.37859 96.7191 2.9257 82.8174 1.45686C79.4545 1.10155 74.5456 0.954415 71.4426 1.11588ZM94.0161 10.936C96.3453 18.0279 96.4988 24.3133 94.477 29.8003C93.014 33.7705 90.5382 37.1282 86.8906 40.0889C86.1842 40.6622 85.9939 40.7724 85.7903 40.7259C85.6549 40.695 85.2642 40.6066 84.9222 40.5296C84.1167 40.3481 82.7282 40.3469 81.5339 40.5267C81.0121 40.6052 80.5691 40.6535 80.5496 40.6339C80.4619 40.5465 80.3182 37.0948 80.3697 36.3158C80.5564 33.4918 81.8676 31.7995 84.4151 31.0945C85.077 30.9114 85.3939 30.8886 87.2184 30.8934C88.8346 30.8975 89.5111 30.9399 90.3756 31.0913C90.9807 31.1972 91.4868 31.2743 91.5004 31.2627C91.5624 31.2091 90.9274 30.3768 90.4662 29.9071C89.3125 28.7326 87.5064 28.0099 84.8602 27.6642L83.9254 27.542L83.0553 26.7144C82.052 25.7598 81.656 25.4905 80.8477 25.2122C79.9161 24.8915 79.045 24.7776 77.9899 24.8386C75.0712 25.0072 72.4946 26.8359 70.8957 29.8733L70.6191 30.3988L70.5915 29.4532C70.4989 26.2753 72.202 20.6397 74.0409 18.039C74.5489 17.3206 75.4516 16.3805 75.8985 16.1048C76.3929 15.7996 76.2717 15.7869 75.7172 16.0857C75.0391 16.4509 73.8894 17.615 73.2343 18.5995C72.0437 20.3889 71.1106 22.6266 70.4319 25.3201L70.0263 26.9292L69.9639 26.3331C69.7514 24.3033 70.1237 20.407 70.7296 18.3185C71.2376 16.5673 71.8601 15.3289 72.6723 14.453C72.9112 14.1954 73.0162 14.0323 72.9056 14.0905C72.5761 14.2637 71.6554 15.3125 71.2974 15.9227C70.4556 17.3571 69.9213 18.9882 69.5128 21.3702C69.254 22.8796 69.1516 26.4587 69.3207 28.0774C69.4495 29.3096 69.7619 30.8475 69.962 31.2348C70.1545 31.6073 70.6263 31.6073 70.7782 31.2348C71.4396 29.614 72.1191 28.5376 73.1144 27.5339C75.0347 25.5976 77.6866 24.8147 80.1864 25.4462C81.1448 25.6884 81.6715 26.007 82.7329 26.9863L83.7487 27.9235L84.8639 28.09C87.3799 28.4656 88.9356 29.0544 89.9919 30.031C90.5717 30.567 90.7076 30.7887 90.3995 30.6953C89.3835 30.3876 85.9875 30.3508 84.6352 30.6329C82.9346 30.9876 81.5715 31.8634 80.8764 33.0479C80.1076 34.358 79.8652 36.0325 80.0466 38.7794C80.1152 39.8177 80.1661 40.6941 80.1597 40.727C80.1533 40.7598 79.8203 40.929 79.4199 41.1028C78.0566 41.6946 76.8285 42.6722 75.4635 44.2522L74.9682 44.8254L74.6724 44.491C72.305 41.815 70.5899 40.7452 68.0716 40.3736C67.0487 40.2226 66.3553 39.8801 65.7246 39.2141C64.7841 38.221 64.2026 36.6885 63.9172 34.4508C63.7849 33.4138 63.7638 32.7048 63.8066 30.7332C63.9048 26.2096 64.6267 21.6053 66.5154 13.4558C66.7022 12.6498 66.8368 11.9722 66.8145 11.9499C66.7419 11.8775 65.8515 12.3097 65.1657 12.7503C62.4789 14.4767 59.6726 17.9222 57.6209 22.0141C56.6745 23.9016 55.7874 26.4153 55.6059 27.7236C55.4818 28.619 55.441 28.6286 55.2048 27.8184C54.8475 26.5922 54.4225 24.467 54.2993 23.2904C54.1665 22.0225 54.2343 19.9907 54.44 19.0782C54.5169 18.7371 54.5676 18.4459 54.5527 18.4311C54.4905 18.3689 52.8952 20.0443 52.3455 20.7492C50.495 23.122 49.1468 26.0658 48.3856 29.3956C47.6168 32.7584 47.3577 35.8608 47.6525 38.1737C47.7417 38.8732 47.793 39.4673 47.7665 39.4938C47.6559 39.6042 46.7008 38.1447 46.1287 36.9911C45.4639 35.6501 44.6386 33.2843 44.2042 31.4736C44.056 30.8562 43.9066 30.351 43.8722 30.351C43.7322 30.351 42.5219 32.96 42.1659 34.0293C41.418 36.2751 41.3419 36.8241 41.3524 39.9051C41.3647 43.5028 41.5402 44.7328 42.3043 46.578C42.8368 47.8638 42.8421 47.8106 42.2163 47.4676C41.9174 47.3038 41.405 46.9898 41.0775 46.7698C40.4687 46.3606 38.5831 44.5356 37.8861 43.6809L37.4982 43.2052L37.3835 43.9675C37.0427 46.2349 37.0273 47.7814 37.3273 49.6337C37.7439 52.2056 39.048 54.8042 40.8634 56.6793C41.3114 57.1421 41.678 57.5341 41.678 57.5505C41.678 57.63 40.4734 57.5633 39.6363 57.4372C38.0541 57.1991 35.9197 56.3741 34.3428 55.3911L33.8807 55.1031L33.8521 55.4162C33.7606 56.4164 34.3841 58.8487 35.0788 60.2018C36.1763 62.3396 38.2438 64.2268 40.8399 65.4606L41.9038 65.9662L41.5278 66.1548C41.0077 66.4158 40.0276 66.7216 39.2862 66.8543C38.5668 66.983 36.5042 66.9896 35.7702 66.8655C35.494 66.8188 35.2679 66.8024 35.2679 66.8293C35.2679 66.9967 36.5461 69.266 37.1347 70.1437C39.0989 73.0725 41.3005 74.5245 44.0876 74.7293C44.5251 74.7615 45.1844 74.748 45.5528 74.6991C45.9211 74.6504 46.2365 74.6226 46.2535 74.6373C46.2705 74.652 46.2211 74.7863 46.1437 74.9357C45.9265 75.3551 44.9294 76.2552 44.3664 76.54C43.7306 76.8618 42.5564 77.1659 41.9497 77.1659C41.6951 77.1659 41.4867 77.2046 41.4867 77.252C41.4867 77.4185 42.3742 78.5145 43.0794 79.2188C43.9346 80.0726 45.1987 80.9379 46.1983 81.3534C48.0066 82.1052 50.8519 82.4308 52.551 82.0803C52.9489 81.9982 53.2889 81.9455 53.3065 81.9631C53.3863 82.0428 52.8329 83.1955 52.4375 83.7735C51.9304 84.5145 50.8932 85.5286 49.9677 86.1881L49.3212 86.6488L49.6375 86.843C50.3018 87.2512 51.7076 87.8518 52.4618 88.0499C53.5672 88.34 54.9097 88.4031 55.9851 88.2153C56.726 88.0861 58.0744 87.6931 58.6361 87.4429C58.8875 87.3308 58.8485 87.5392 58.4704 88.327C58.0203 89.265 57.6479 89.7924 56.857 90.6123L56.1898 91.304L56.9944 91.6804C58.2139 92.2509 59.2202 92.4806 60.4778 92.4754C62.0849 92.4687 63.4236 92.1023 65.0778 91.2164L65.7552 90.8536L66.3146 91.6096C67.7424 93.5394 69.7288 94.8462 72.102 95.4169C72.7887 95.5821 73.3853 95.6454 74.5417 95.6763C75.9019 95.7125 77.4861 95.6107 77.6185 95.4784C77.6448 95.4522 77.2632 94.8142 76.7703 94.0609C75.7454 92.4945 75.4506 92.0221 75.4506 91.9467C75.4506 91.9174 75.8301 92.0578 76.2939 92.2587C79.4793 93.6383 83.0827 94.044 87.6967 93.5424C89.1313 93.3865 92.2964 92.8528 92.4092 92.7479C92.4489 92.7108 92.1691 92.6014 91.7873 92.5046C88.23 91.603 84.749 89.922 82.0999 87.8264C79.6145 85.8603 77.4436 83.1901 75.6855 79.9366C75.0346 78.7323 74.0155 76.5648 74.0155 76.3848C74.0155 76.3314 74.22 76.4427 74.4699 76.6321C77.2317 78.7247 80.8539 79.8851 85.2733 80.0929L86.6289 80.1566L85.6528 79.1629C85.0066 78.505 84.5696 77.965 84.3597 77.5653C84.1853 77.2331 84.0616 76.9425 84.0847 76.9195C84.1077 76.8965 84.4025 77.002 84.7397 77.1541C85.0768 77.3063 85.6111 77.4815 85.9268 77.5434C86.2425 77.6053 86.6945 77.7174 86.9313 77.7924C87.7435 78.05 89.0906 78.3049 90.1823 78.4077C92.0889 78.5872 94.3098 78.2513 95.9661 77.533C97.3404 76.9368 99.303 75.6121 100.176 74.6915L100.457 74.3952L99.6977 74.3945C99.2665 74.3942 98.5878 74.31 98.127 74.1996C97.3449 74.0124 96.4986 73.6187 96.4986 73.4419C96.4986 73.395 96.9399 73.3391 97.4793 73.3179C99.4985 73.2382 102.248 72.2898 103.913 71.0987C104.229 70.8729 104.748 70.4366 105.067 70.1292C105.676 69.5417 106.5 68.4912 106.417 68.408C106.39 68.3811 106.066 68.406 105.696 68.4632C104.694 68.6185 103.195 68.5731 103.196 68.3875C103.196 68.355 103.401 68.2445 103.65 68.142C103.9 68.0395 104.202 67.8576 104.322 67.7379C104.442 67.618 104.808 67.3403 105.136 67.1206C106.903 65.9347 108.605 64.3124 109.75 62.7207C110.284 61.9792 111.764 59.226 111.677 59.1384C111.662 59.1239 111.21 59.3052 110.673 59.5412C109.631 59.9994 108.078 60.4463 107.529 60.4463H107.195L107.946 59.8396C109.473 58.6059 111.297 56.6226 112.353 55.0482C113.589 53.2039 114.464 51.0196 114.725 49.1297L114.79 48.6569L114.47 48.9176C113.072 50.0579 111.606 50.9943 110.385 51.5264C109.667 51.8395 109.367 51.9181 109.431 51.776C109.449 51.7365 109.651 51.3174 109.881 50.8445C111.143 48.2491 111.548 47.2856 112.089 45.5917C112.76 43.4913 113.243 40.8213 113.429 38.1853C113.585 35.9745 113.667 36.0803 112.644 37.1758C112.158 37.6967 111.352 38.4859 110.853 38.9295C109.972 39.7123 108.864 40.5334 108.789 40.4585C108.768 40.4382 108.817 40.2087 108.897 39.9483C109.135 39.1715 109.577 37.2454 109.741 36.2745C110.16 33.7865 110.311 29.9689 110.081 27.6621C109.91 25.9376 109.347 23.1122 109.126 22.8674C109.05 22.7824 108.794 23.1811 107.118 26.0039C106.061 27.7837 104.94 29.4915 104.83 29.4908C104.799 29.4905 104.768 28.8732 104.76 28.119C104.717 24.1023 104.059 21.1022 102.576 18.1602C100.721 14.4814 97.9092 11.7333 93.9502 9.73058L93.5545 9.53033L94.0161 10.936ZM65.0701 40.7128C59.9353 41.6455 56.8524 46.3134 56.6299 53.4921C56.419 60.2942 59.1435 66.4289 64.1612 70.4499C67.3751 73.0254 72.0587 74.9917 74.9722 74.9885C76.7702 74.9866 80.0312 73.926 82.5561 72.522C89.4991 68.6614 93.4778 61.8915 93.4713 53.9495C93.4653 46.8649 90.6302 42.3605 85.312 40.9864C84.4753 40.7703 84.2677 40.7538 82.9131 40.7956C79.8173 40.8912 78.2027 41.7016 75.931 44.2999C75.4945 44.7991 75.1042 45.2443 75.0638 45.2893C75.0232 45.3343 74.8251 45.1839 74.6233 44.955C73.1035 43.2306 71.8257 42.1114 70.7735 41.5829C69.081 40.733 66.8403 40.3912 65.0701 40.7128ZM61.4794 45.4873C59.8908 46.4816 59.0342 49.0989 59.2863 52.188C59.5185 55.0337 60.31 56.9575 61.9504 58.6635C64.4695 61.2835 68.2614 61.4187 70.832 58.9803C71.6768 58.179 72.2214 57.4416 72.7483 56.3858C73.7073 54.4645 74.1315 52.3208 73.9238 50.4462C73.7372 48.7606 73.2576 47.4173 72.468 46.3679C72.1033 45.8831 71.16 45.1598 70.8926 45.1598C70.6038 45.1598 70.0066 45.5512 69.5907 46.0132C69.1873 46.4613 68.6578 47.53 68.6578 47.8962C68.6578 48.0231 68.5931 48.0391 68.299 47.9851C67.25 47.7925 66.4929 47.7527 65.7555 47.8511C65.3259 47.9084 64.895 47.9605 64.798 47.9668C64.665 47.9755 64.5678 47.8309 64.4026 47.3789C63.9316 46.0896 63.0186 45.1598 62.2239 45.1598C62.1021 45.1598 61.7671 45.3072 61.4794 45.4873ZM80.9518 53.2502C77.5685 53.4291 75.5084 54.3329 74.658 56.0116C73.6756 57.9507 73.5786 61.1703 74.4122 64.1724C75.002 66.2961 75.8662 67.2118 76.9064 66.8152L77.3162 66.659L77.2856 62.7405L77.255 58.8221H77.5634H77.8719L77.808 61.6644C77.7728 63.2277 77.7842 65.053 77.8334 65.7205C77.9164 66.8453 77.9443 66.9654 78.215 67.3583C78.8892 68.3369 79.8236 68.8848 81.0187 69.0023C82.6938 69.1671 84.2494 68.4249 84.9767 67.1139L85.2571 66.6087L85.2867 62.6198L85.3164 58.631H85.5393H85.7622L85.8341 60.6135C85.8736 61.7039 85.8793 63.4633 85.8468 64.5234L85.7878 66.4508L86.2239 66.5437C87.6805 66.8539 88.4025 65.6816 88.7997 62.3622C89.0229 60.4966 88.9578 58.0434 88.6574 57.0068C88.2694 55.6677 87.4465 54.5505 86.4905 54.0647C85.3598 53.4903 82.9932 53.1422 80.9518 53.2502ZM0 74.9685C0 75.5202 0.015786 75.746 0.035112 75.47C0.0544379 75.1941 0.0544379 74.7428 0.035112 74.4669C0.015786 74.191 0 74.4167 0 74.9685ZM37.8272 105.156C37.5913 105.343 37.564 105.425 37.5634 105.954C37.563 106.279 37.5358 106.83 37.5029 107.178L37.443 107.811L36.9056 107.873C34.8372 108.112 33.0726 109.066 32.2065 110.414C31.2058 111.971 31.0637 114.508 31.8853 116.148C32.5872 117.549 34.0083 118.362 36.2222 118.628C36.668 118.682 37.0663 118.726 37.1071 118.726C37.148 118.726 37.1814 119.396 37.1814 120.214V121.703L37.4445 121.654C37.5891 121.627 37.912 121.578 38.162 121.545L38.6165 121.485L38.617 120.989C38.6173 120.717 38.6453 120.074 38.6792 119.562L38.7411 118.63H39.0568C39.9925 118.63 41.6789 118.079 42.5705 117.481C44.0464 116.491 44.7113 115.228 44.8066 113.232C44.8684 111.94 44.7483 111.245 44.3081 110.35C43.9038 109.528 43.272 108.921 42.3757 108.494C41.6997 108.172 40.2685 107.838 39.5549 107.836C39.3081 107.835 39.0832 107.797 39.0551 107.752C39.027 107.707 39.0451 107.097 39.0952 106.396C39.1453 105.696 39.1702 105.107 39.1506 105.088C39.131 105.068 38.8845 105.029 38.6026 105C38.1724 104.956 38.0482 104.981 37.8272 105.156ZM111.377 105.121C108.54 105.753 106.458 107.937 105.62 111.159C105.29 112.429 105.212 114.316 105.44 115.523C105.979 118.377 107.71 120.459 110.132 121.17C110.827 121.374 112.358 121.398 113.194 121.218C114.009 121.043 114.991 120.607 115.683 120.114C116.273 119.693 117.26 118.755 117.26 118.615C117.26 118.575 117.174 118.496 117.069 118.44C116.908 118.354 116.781 118.412 116.259 118.812C114.919 119.837 113.555 120.307 112.133 120.233C111.375 120.193 111.166 120.141 110.506 119.825C109.468 119.328 108.703 118.536 108.121 117.355C107.389 115.869 107.27 115.265 107.273 113.041C107.275 110.81 107.396 110.198 108.13 108.711C109.056 106.832 110.569 105.828 112.473 105.828C113.754 105.828 114.852 106.236 115.623 106.998C116.137 107.507 116.391 108.056 116.462 108.817C116.511 109.344 116.552 109.451 116.719 109.495C116.829 109.524 116.945 109.503 116.979 109.449C117.012 109.394 117.066 108.697 117.098 107.9C117.151 106.598 117.139 106.425 116.985 106.21C116.77 105.913 115.772 105.401 115.011 105.199C114.177 104.976 112.213 104.934 111.377 105.121ZM101.729 105.127C101.694 105.162 101.665 105.413 101.665 105.683C101.665 106.849 101.12 107.808 99.5433 109.42C98.964 110.012 97.7837 111.11 96.9204 111.861C96.0569 112.611 95.3506 113.251 95.3506 113.283C95.3506 113.473 99.7639 119.274 100.572 120.146C101.336 120.97 102.029 121.351 102.588 121.254C103.184 121.151 103.972 120.914 104.518 120.674C104.969 120.476 105.02 120.425 104.961 120.233C104.924 120.113 104.887 120.007 104.879 119.997C104.871 119.987 104.579 120.027 104.23 120.086C103.742 120.17 103.506 120.168 103.203 120.077C102.325 119.814 101.118 118.511 98.8019 115.323C98.0428 114.278 97.3221 113.291 97.2003 113.129L96.9789 112.835L97.8147 112.126C99.5836 110.626 101.616 108.729 102.249 107.987C103.368 106.676 103.559 105.981 102.966 105.389C102.694 105.117 102.571 105.064 102.217 105.064C101.983 105.064 101.764 105.092 101.729 105.127ZM70.7114 105.34C70.6044 105.387 70.4682 105.483 70.4088 105.555C70.2936 105.693 70.1424 107.724 70.0354 110.568L69.9702 112.298L66.341 112.368C64.3449 112.406 62.6895 112.416 62.6625 112.389C62.6355 112.362 62.6535 111.122 62.7024 109.633C62.8089 106.401 62.7713 105.891 62.4033 105.575C62.1829 105.386 62.0366 105.35 61.4806 105.35C60.8539 105.35 59.06 105.67 58.8059 105.827C58.738 105.868 58.7132 105.981 58.7477 106.09C58.8024 106.262 58.8887 106.279 59.6748 106.269C60.5117 106.258 60.5494 106.267 60.7727 106.526L61.004 106.794L61.0015 109.679C60.9993 112.298 60.9436 114.486 60.7536 119.431L60.688 121.14L61.444 121.071C61.8597 121.033 62.2375 120.966 62.2834 120.922C62.3294 120.878 62.4237 119.152 62.4931 117.085C62.5624 115.019 62.6217 113.324 62.6248 113.318C62.651 113.273 65.8944 113.183 67.6824 113.178L69.9121 113.171L69.9042 116.141C69.8944 119.913 70.0083 120.613 70.7062 121.07C71.0962 121.325 72.0459 121.267 73.0645 120.927C74.2836 120.519 74.395 120.45 74.2904 120.173C74.2174 119.979 74.1687 119.959 73.9431 120.029C73.7987 120.075 73.3719 120.111 72.9946 120.111C72.2066 120.111 71.9393 119.945 71.7216 119.321C71.4323 118.491 71.5134 112.261 71.8752 107.515C71.9694 106.28 71.9932 105.49 71.9377 105.435C71.8098 105.307 70.9424 105.24 70.7114 105.34ZM50.2408 105.45C48.6442 105.508 47.5182 105.614 46.6291 105.791C46.4131 105.834 46.366 105.894 46.366 106.126V106.409L47.0601 106.346C47.9203 106.269 48.4286 106.439 48.5292 106.839C48.565 106.982 48.5688 109.081 48.5376 111.503C48.4826 115.773 48.3784 118.292 48.1801 120.149C48.1273 120.643 48.1056 121.068 48.1319 121.095C48.1581 121.121 48.5142 121.082 48.9231 121.009C49.9545 120.824 52.3885 120.84 53.5893 121.039C55.1136 121.292 55.2723 121.304 55.7347 121.201C56.2694 121.082 56.6216 120.761 56.8824 120.156C57.0944 119.664 57.2677 118.674 57.2708 117.938C57.2726 117.503 57.2613 117.484 57.0026 117.484C56.7473 117.484 56.7264 117.516 56.623 118.072C56.4768 118.857 56.1484 119.491 55.7517 119.753C55.4373 119.961 55.3494 119.968 53.0729 119.974C51.7783 119.977 50.5101 120.014 50.2545 120.056L49.7898 120.132L49.851 119.357C49.9932 117.553 50.0946 115.758 50.0969 115C50.0982 114.553 50.1268 114.022 50.1604 113.819L50.2214 113.45L50.7573 113.51C52.1278 113.665 53.7707 113.735 54.3516 113.663C55.1376 113.565 55.3593 113.391 55.3593 112.872C55.3593 112.524 55.3419 112.499 55.144 112.559C54.7902 112.665 51.9195 112.738 51.0202 112.663L50.1842 112.594L50.2397 110.142C50.2702 108.794 50.3188 107.379 50.3478 106.998L50.4006 106.306L52.6168 106.307C54.9995 106.309 55.1353 106.333 55.4913 106.811C55.6548 107.031 55.696 107.253 55.7266 108.077L55.7637 109.076H56.0339C56.3434 109.076 56.3389 109.095 56.5068 107.166C56.6314 105.733 56.6296 105.677 56.4527 105.5C56.3239 105.372 55.997 105.353 54.1805 105.367C53.0134 105.376 51.2405 105.414 50.2408 105.45ZM75.8811 105.578C74.9855 105.774 74.9244 105.803 74.9244 106.023C74.9244 106.256 74.9325 106.258 75.8172 106.258C76.6766 106.258 76.7185 106.268 76.9414 106.526L77.1727 106.794L77.1705 109.631C77.1693 111.192 77.1283 113.586 77.0794 114.952C77.0305 116.318 76.9606 118.27 76.924 119.289L76.8575 121.142L77.5652 121.076C77.9544 121.039 78.3477 120.987 78.439 120.96C78.5304 120.933 78.7634 120.624 78.9569 120.273C80.5572 117.366 85.161 109.493 86.0909 108.073L86.4664 107.5L86.4087 108.647C86.245 111.901 86.17 114.437 86.17 116.72C86.17 119.942 86.2979 120.63 86.9797 121.076C87.3578 121.323 88.2995 121.262 89.3422 120.923C90.5381 120.533 90.6616 120.457 90.5547 120.173C90.4925 120.008 90.4258 119.966 90.3032 120.017C89.9728 120.154 88.8041 120.172 88.5578 120.044C88.4262 119.976 88.211 119.705 88.0794 119.443C87.8515 118.987 87.8386 118.872 87.8067 116.981C87.7679 114.694 87.9189 110.402 88.1396 107.512C88.2678 105.834 88.2713 105.505 88.1618 105.436C88.0901 105.39 87.7865 105.353 87.4868 105.352C87.0553 105.351 86.8921 105.395 86.7021 105.565C86.2321 105.987 79.8356 116.703 78.872 118.683C78.7584 118.917 78.6259 119.108 78.5776 119.108C78.5274 119.108 78.5151 118.852 78.5488 118.511C78.6674 117.309 78.9071 109.359 78.8775 107.611L78.847 105.811L78.5785 105.581C78.3426 105.378 78.221 105.351 77.5739 105.359C77.1691 105.364 76.4073 105.462 75.8811 105.578ZM92.4921 105.503C91.2294 105.779 91.1265 105.821 91.1589 106.048C91.1873 106.247 91.2353 106.258 92.0816 106.258C92.941 106.258 92.9829 106.268 93.2058 106.526L93.4371 106.794L93.4349 109.631C93.4337 111.192 93.3927 113.586 93.3438 114.952C93.2949 116.318 93.2251 118.27 93.1885 119.288L93.122 121.14L93.8776 121.071C94.2931 121.033 94.6703 120.966 94.7159 120.923C94.8214 120.822 95.1734 109.561 95.138 107.42L95.1114 105.811L94.8429 105.581C94.6068 105.378 94.4861 105.352 93.8384 105.36C93.4335 105.365 92.8278 105.43 92.4921 105.503ZM36.1321 108.7C34.6327 109.092 33.7575 109.911 33.292 111.355C33.0914 111.978 33.0124 113.987 33.1593 114.735C33.5059 116.501 34.6404 117.601 36.4276 117.904L37.1336 118.024L37.1945 117.73C37.228 117.568 37.2825 115.953 37.3157 114.14C37.3489 112.327 37.4032 110.317 37.4363 109.674L37.4963 108.503L37.1714 108.508C36.9927 108.511 36.525 108.598 36.1321 108.7ZM38.9574 109.005C38.8954 109.565 38.713 115.563 38.7125 117.062L38.7122 118.025L39.3285 117.942C40.6629 117.764 41.8138 117.16 42.3436 116.362C43.4282 114.726 43.4791 111.669 42.4466 110.183C41.8855 109.376 41.269 108.969 40.1905 108.693C39.0529 108.403 39.0233 108.41 38.9574 109.005ZM88.9249 124.827C88.4574 125.674 87.4826 125.869 87.2162 125.169C87.113 124.898 87.0042 124.877 86.7946 125.086C86.5954 125.285 86.6051 125.434 86.8361 125.727C87.2495 126.252 88.2989 126.105 88.797 125.453C89.0152 125.167 89.3232 124.559 89.3232 124.414C89.3232 124.244 89.1449 124.429 88.9249 124.827ZM33.3066 126.663C32.4131 126.783 32.2451 126.87 32.7804 126.937L33.211 126.99L33.2012 128.86L33.1914 130.729L34.1188 130.748C35.4776 130.776 36.0871 130.448 36.197 129.629C36.2437 129.282 36.2162 129.209 35.9431 128.954C35.7747 128.797 35.483 128.64 35.2948 128.604L34.9527 128.54L35.3255 128.362C35.9459 128.065 36.1754 127.615 35.9739 127.09C35.8134 126.672 34.6367 126.484 33.3066 126.663ZM38.395 126.653C37.5826 126.911 36.9821 127.823 36.9198 128.895C36.8868 129.463 36.9158 129.638 37.1027 129.999C37.3521 130.482 37.9106 130.857 38.3773 130.856C38.7726 130.855 39.3741 130.561 39.7107 130.203C40.0487 129.844 39.9059 129.814 39.4206 130.143C38.899 130.497 38.3984 130.47 37.9949 130.067C37.7041 129.777 37.4702 129.228 37.469 128.834C37.4686 128.719 37.575 128.654 37.8272 128.614C38.941 128.436 39.679 128.141 39.8627 127.798C40.0311 127.484 39.9369 127.031 39.6606 126.826C39.3722 126.611 38.7799 126.531 38.395 126.653ZM48.4349 126.696C47.426 127.068 46.7362 128.507 47.035 129.615C47.1807 130.155 47.7338 130.725 48.1972 130.812C48.6759 130.901 49.2356 130.724 49.6737 130.345C50.134 129.946 50.0622 129.804 49.5689 130.138C49.1876 130.397 48.7271 130.451 48.354 130.281C48.025 130.131 47.6885 129.58 47.6346 129.103C47.5893 128.701 47.5996 128.68 47.8616 128.629C48.0124 128.6 48.3809 128.528 48.6801 128.47C49.5998 128.292 50.1987 127.741 50.0626 127.2C49.9341 126.689 49.1296 126.439 48.4349 126.696ZM50.7909 126.727C50.0816 126.905 50.0109 127.046 50.6474 127.013L51.1018 126.99L51.0797 129.283C51.0675 130.544 51.0233 132.017 50.9814 132.556L50.9053 133.535H51.2188H51.5323V132.305C51.5323 131.628 51.5595 130.939 51.5927 130.773C51.6492 130.491 51.6658 130.48 51.8572 130.606C52.7131 131.166 53.9168 130.675 54.4639 129.544C54.6872 129.082 54.7292 128.87 54.7329 128.185C54.7367 127.497 54.7033 127.318 54.5163 127.017C53.9519 126.111 52.9073 126.646 52.0506 128.28L51.7251 128.901L51.7483 127.823C51.7671 126.95 51.7442 126.727 51.628 126.654C51.4582 126.547 51.5326 126.54 50.7909 126.727ZM55.8385 126.719C55.1377 126.9 54.9886 127.056 55.551 127.019L55.9811 126.99L55.9625 128.888L55.9439 130.786L56.2425 130.726C56.4068 130.693 56.5474 130.656 56.5551 130.644C57.8012 128.581 58.1255 128.053 58.3909 127.659L58.7124 127.181L58.6484 128.619C58.5699 130.385 58.6539 130.765 59.1219 130.762C59.4107 130.76 60.2386 130.448 60.2386 130.341C60.2386 130.313 60.046 130.316 59.8105 130.349C59.4052 130.404 59.3767 130.393 59.2737 130.132C59.1987 129.942 59.1836 129.357 59.2248 128.25L59.2846 126.644L58.9766 126.674C58.6566 126.705 58.6237 126.75 56.7435 129.75L56.497 130.143L56.5512 129.236C56.5809 128.736 56.6318 127.978 56.6643 127.55C56.737 126.591 56.6543 126.508 55.8385 126.719ZM60.7887 126.729C60.2003 126.877 60.01 127.102 60.5602 126.999C61.1029 126.897 61.1266 126.994 61.0481 128.993C60.9866 130.56 60.9956 130.764 61.1269 130.764C61.5438 130.764 61.578 130.684 61.578 129.712V128.775L62.3695 128.709C63.6598 128.602 63.5979 128.558 63.649 129.618C63.7103 130.887 63.9242 131.043 64.9082 130.535C65.0762 130.448 65.2136 130.362 65.2136 130.343C65.2136 130.325 65.022 130.331 64.7878 130.358C64.3842 130.403 64.3582 130.392 64.2855 130.131C64.1889 129.785 64.1872 128.58 64.2818 127.486L64.3546 126.644L64.0426 126.674L63.7306 126.704L63.6828 127.564L63.635 128.423L62.6543 128.451L61.6737 128.478V127.618C61.6737 126.58 61.6145 126.521 60.7887 126.729ZM66.9351 126.65C66.2332 126.863 65.7876 127.262 65.7876 127.677C65.7876 127.893 66.0334 128.089 66.303 128.089C66.4207 128.089 66.4378 128 66.3928 127.621C66.3419 127.192 66.3582 127.14 66.5906 126.988C66.9019 126.785 67.4597 126.85 67.7325 127.123C67.9358 127.326 68.056 128.145 67.9133 128.354C67.8675 128.421 67.559 128.52 67.2278 128.573C66.8966 128.627 66.4568 128.756 66.2507 128.861C65.565 129.21 65.2966 130.002 65.6931 130.505C66.142 131.075 66.9235 130.866 67.5213 130.017L67.8678 129.525L67.9184 129.973C67.9789 130.509 68.2381 130.764 68.7209 130.764C69.0025 130.764 69.6145 130.541 69.6145 130.439C69.6145 130.421 69.4251 130.427 69.1937 130.453C68.8183 130.495 68.7548 130.473 68.6068 130.247C68.4608 130.025 68.449 129.841 68.5089 128.713C68.5668 127.622 68.5534 127.383 68.4182 127.099C68.1939 126.626 67.6017 126.447 66.9351 126.65ZM69.9255 126.727C69.2161 126.905 69.1454 127.046 69.782 127.013L70.2364 126.99L70.2157 129.14C70.2044 130.322 70.1606 131.795 70.1185 132.412L70.042 133.535H70.3545H70.6669V132.305C70.6669 131.628 70.6941 130.939 70.7273 130.773C70.7838 130.491 70.8004 130.48 70.9918 130.606C71.863 131.176 73.0872 130.645 73.6407 129.458C73.9352 128.827 73.9594 127.522 73.6851 127.066C73.4689 126.707 73.0678 126.513 72.7201 126.601C72.3064 126.704 71.663 127.388 71.249 128.164L70.8562 128.901L70.8811 127.823C70.9014 126.949 70.8789 126.727 70.7626 126.654C70.5928 126.547 70.6672 126.54 69.9255 126.727ZM74.9731 126.719C74.2723 126.9 74.1232 127.056 74.6856 127.019L75.1157 126.99L75.1027 128.877C75.091 130.566 75.1061 130.764 75.2462 130.763C75.552 130.76 75.6136 130.61 75.6753 129.721C75.7097 129.226 75.7514 128.808 75.7679 128.791C75.7846 128.775 76.2365 128.732 76.7724 128.697L77.7467 128.633V129.454C77.7467 129.905 77.7908 130.39 77.8447 130.531C77.9351 130.769 77.975 130.785 78.3663 130.741C78.5994 130.715 78.932 130.602 79.1056 130.491L79.421 130.288L78.9762 130.347C78.3124 130.434 78.2797 130.327 78.3495 128.302L78.4065 126.644L78.1521 126.674C77.8437 126.71 77.7696 126.926 77.7563 127.826L77.7467 128.471H76.7298H75.7129L75.7797 127.618C75.8611 126.579 75.7955 126.506 74.9731 126.719ZM79.9481 126.719C79.2473 126.9 79.0982 127.056 79.6606 127.019L80.0907 126.99L80.0808 128.867L80.0709 130.743L80.4156 130.741C80.6053 130.739 80.9807 130.748 81.2499 130.76C81.7616 130.783 82.1729 130.632 82.4473 130.32C82.9338 129.767 83.0553 128.964 82.7176 128.535C82.4558 128.203 81.9862 128.128 81.2693 128.302L80.6901 128.444L80.7558 127.604C80.836 126.581 80.7683 126.507 79.9481 126.719ZM92.8391 126.731C92.2515 126.877 92.059 127.102 92.6107 126.999C93.1576 126.897 93.1876 127.01 93.112 128.892C93.0526 130.373 93.0621 130.556 93.2013 130.609C93.287 130.642 94.041 130.669 94.8769 130.669H96.3967L96.4237 131.736C96.4583 133.099 96.611 133.187 96.7718 131.936C96.8378 131.423 96.916 130.885 96.9455 130.74C96.9944 130.501 96.974 130.478 96.7194 130.478C96.5655 130.478 96.356 130.416 96.2538 130.342C96.087 130.22 96.0698 130.096 96.0855 129.124C96.0951 128.528 96.1311 127.729 96.1654 127.349L96.228 126.656H95.9392C95.7472 126.656 95.6336 126.712 95.6001 126.823C95.5723 126.915 95.5371 127.753 95.5218 128.686L95.4941 130.382H94.6603C93.9607 130.382 93.812 130.355 93.736 130.213C93.6813 130.111 93.6729 129.439 93.7148 128.517C93.753 127.677 93.7668 126.919 93.7454 126.832C93.689 126.603 93.4612 126.577 92.8391 126.731ZM98.8455 126.708C98.0035 127.026 97.4145 127.988 97.4182 129.038C97.4206 129.77 97.5919 130.162 98.0682 130.525C98.6996 131.006 99.5883 130.905 100.183 130.286C100.542 129.911 100.439 129.833 99.9886 130.138C99.5003 130.469 99.0029 130.464 98.5978 130.124C98.2512 129.832 98.0294 129.378 98.0294 128.96C98.0294 128.728 98.0764 128.668 98.2925 128.627C98.4373 128.599 98.8005 128.528 99.0998 128.47C100.019 128.292 100.618 127.741 100.482 127.2C100.352 126.683 99.549 126.442 98.8455 126.708ZM101.379 126.719C100.712 126.892 100.49 127.085 101.066 126.992C101.433 126.932 101.48 126.947 101.556 127.149C101.604 127.275 101.607 128.102 101.565 129.044C101.523 129.963 101.505 130.732 101.525 130.751C101.544 130.771 101.664 130.761 101.791 130.729C102.056 130.663 102.141 130.334 102.142 129.368L102.143 128.785L102.731 128.724C103.055 128.69 103.507 128.662 103.736 128.662H104.152L104.164 129.403C104.181 130.508 104.242 130.71 104.573 130.748C104.858 130.78 105.64 130.53 105.735 130.376C105.766 130.325 105.607 130.314 105.356 130.348C104.945 130.404 104.917 130.393 104.814 130.132C104.699 129.841 104.751 127.144 104.877 126.815C104.935 126.666 104.899 126.646 104.62 126.673L104.296 126.704L104.209 127.587L104.121 128.471H103.133H102.145L102.206 127.622C102.28 126.583 102.208 126.505 101.379 126.719ZM112.691 126.731C111.985 126.907 111.911 127.046 112.541 127.013C112.937 126.993 112.995 127.016 113.043 127.209C113.101 127.439 113.028 130.139 112.906 132.269L112.834 133.535H113.121H113.407L113.452 132.054C113.477 131.239 113.518 130.552 113.543 130.526C113.569 130.501 113.759 130.569 113.965 130.676C114.926 131.176 116.145 130.426 116.549 129.086C116.834 128.14 116.644 127.03 116.141 126.701C115.559 126.32 114.628 126.98 113.963 128.244L113.618 128.901L113.677 127.834C113.731 126.83 113.723 126.76 113.542 126.663C113.436 126.607 113.336 126.565 113.319 126.571C113.303 126.577 113.02 126.649 112.691 126.731ZM42.654 126.729C41.0359 126.746 40.1586 126.788 40.196 126.849C40.2281 126.9 40.4035 126.943 40.5858 126.943C40.8586 126.943 40.9349 126.989 41.0163 127.202C41.1103 127.449 41.0652 129.716 40.9518 130.454C40.9128 130.707 40.9358 130.764 41.0758 130.763C41.4753 130.759 41.5051 130.653 41.5879 128.937C41.632 128.024 41.6702 127.212 41.6728 127.134C41.6767 127.016 41.8099 126.996 42.4077 127.022L43.1379 127.054L43.0686 128.909C43.008 130.532 43.0174 130.764 43.144 130.764C43.5689 130.764 43.591 130.7 43.6027 129.44C43.6088 128.776 43.6411 127.957 43.6744 127.621L43.735 127.01L44.1177 126.971C44.3282 126.949 44.6377 126.957 44.8055 126.988L45.1105 127.045L45.1403 128.817C45.1773 131.015 45.2016 131.049 46.3899 130.562C46.7843 130.401 46.7073 130.304 46.2273 130.358C45.8387 130.402 45.7974 130.386 45.7536 130.179C45.6406 129.645 45.6302 129.117 45.7106 128.004C45.7577 127.352 45.7725 126.796 45.7435 126.767C45.6761 126.699 45.6382 126.699 42.654 126.729ZM83.7118 126.802C83.6809 126.883 83.6499 127.768 83.6431 128.768C83.6319 130.413 83.647 130.6 83.8015 130.713C84.0135 130.868 84.5029 130.772 84.9445 130.489L85.2571 130.288L84.8051 130.348C84.3731 130.405 84.3483 130.395 84.2444 130.132C84.1346 129.854 84.1869 127.33 84.3119 126.871C84.3637 126.681 84.3353 126.656 84.0693 126.656C83.8869 126.656 83.7459 126.714 83.7118 126.802ZM85.568 126.771C85.1397 126.884 85.0761 127.089 85.4952 127.005C86.0314 126.898 86.0711 126.966 86.0613 127.98C86.0563 128.487 86.0239 129.304 85.9892 129.797C85.94 130.495 85.9538 130.703 86.0521 130.741C86.2891 130.832 86.6161 130.59 86.882 130.128C87.1933 129.586 88.6686 127.229 88.6961 127.229C88.7066 127.229 88.6957 127.931 88.6722 128.79C88.6203 130.682 88.6603 130.81 89.2802 130.74C89.5093 130.714 89.8387 130.603 90.0123 130.492L90.3277 130.292L89.8304 130.35C89.3488 130.406 89.3311 130.399 89.2674 130.146C89.2312 130.002 89.2227 129.155 89.2484 128.265L89.2952 126.646L89.0021 126.675C88.6656 126.708 88.5917 126.803 87.3885 128.749C86.469 130.235 86.4776 130.242 86.6253 128.185C86.6723 127.531 86.6908 126.919 86.6664 126.825C86.6158 126.632 86.1733 126.61 85.568 126.771ZM108.29 126.727C106.727 126.744 105.779 126.79 105.779 126.849C105.779 126.9 105.928 126.943 106.11 126.943C106.622 126.943 106.665 127.111 106.595 128.838C106.562 129.661 106.514 130.431 106.49 130.549C106.441 130.781 106.655 130.843 106.922 130.674C107.046 130.595 107.155 129.297 107.207 127.269C107.213 127.022 107.249 126.978 107.429 126.998C107.548 127.011 107.877 127.026 108.16 127.03L108.676 127.038L108.607 128.901C108.547 130.522 108.557 130.764 108.682 130.764C109.1 130.764 109.127 130.692 109.14 129.536C109.147 128.924 109.179 128.101 109.212 127.707L109.271 126.99L109.649 126.959C109.858 126.943 110.17 126.955 110.343 126.988L110.658 127.047V128.66C110.658 129.548 110.7 130.384 110.752 130.519C110.861 130.806 111.23 130.847 111.75 130.631C112.225 130.432 112.258 130.295 111.816 130.355C111.24 130.432 111.196 130.274 111.256 128.363C111.308 126.708 111.287 126.604 110.913 126.678C110.852 126.69 109.672 126.713 108.29 126.727ZM34.1083 126.815C33.9469 126.858 33.8328 127.391 33.8328 128.102C33.8328 128.461 33.8423 128.471 34.1708 128.471C34.6117 128.471 35.1301 128.251 35.2603 128.008C35.4445 127.664 35.3877 127.153 35.1483 127.003C34.9092 126.853 34.3475 126.752 34.1083 126.815ZM38.2193 126.992C37.9571 127.134 37.601 127.766 37.5471 128.185C37.5187 128.404 37.5433 128.421 37.8511 128.394C39.0215 128.293 39.6573 127.6 39.0949 127.038C38.8714 126.815 38.5749 126.799 38.2193 126.992ZM48.423 126.937C48.1363 127.054 47.9186 127.334 47.7557 127.795C47.5368 128.415 47.5548 128.467 47.9685 128.411C48.9528 128.277 49.498 127.877 49.3731 127.38C49.2646 126.949 48.8585 126.759 48.423 126.937ZM98.8426 126.937C98.556 127.054 98.3382 127.334 98.1754 127.795C97.9514 128.429 97.9718 128.489 98.3882 128.422C99.6471 128.217 100.173 127.641 99.6123 127.082C99.3698 126.839 99.1728 126.802 98.8426 126.937ZM52.8863 127.562C52.3618 128.035 51.6339 129.491 51.6291 130.076C51.6278 130.223 52.3467 130.568 52.6603 130.571C53.1152 130.575 53.6053 130.22 53.8662 129.698C54.1573 129.114 54.2091 128.115 53.9769 127.56C53.785 127.102 53.3957 127.102 52.8863 127.562ZM72.005 127.576C71.5859 127.954 70.9066 129.229 70.8029 129.833C70.7428 130.182 70.7513 130.195 71.1586 130.38C71.6829 130.617 71.9224 130.62 72.3697 130.392C72.8958 130.124 73.1785 129.557 73.2301 128.666C73.3114 127.264 72.8277 126.834 72.005 127.576ZM114.822 127.527C114.415 127.884 113.89 128.799 113.68 129.516C113.597 129.801 113.528 130.066 113.528 130.104C113.528 130.142 113.725 130.269 113.965 130.385C115.084 130.926 116.013 130.067 116.015 128.49C116.017 127.245 115.562 126.878 114.822 127.527ZM80.8235 128.651C80.734 128.707 80.6905 128.988 80.68 129.576L80.6648 130.419L80.9757 130.51C81.6744 130.714 82.339 130.177 82.339 129.408C82.339 128.862 82.0122 128.566 81.4105 128.568C81.1582 128.569 80.894 128.606 80.8235 128.651ZM33.7931 129.475C33.7568 129.922 33.7504 130.326 33.7789 130.372C33.8727 130.524 34.5084 130.586 34.8419 130.476C35.5317 130.249 35.79 129.444 35.3144 129.004C35.0639 128.772 34.6961 128.662 34.1689 128.662H33.8591L33.7931 129.475ZM67.5576 128.71C67.5049 128.728 67.3017 128.769 67.1059 128.802C66.5619 128.892 66.1703 129.269 66.1703 129.703C66.1703 129.898 66.222 130.109 66.2851 130.172C66.6249 130.511 67.3922 130.087 67.7126 129.383C67.9854 128.783 67.9388 128.581 67.5576 128.71Z" fill="#F07E00"/>
</g>
</svg>
