<svg width="86" height="29" viewBox="0 0 86 29" fill="none" xmlns="http://www.w3.org/2000/svg">
<path id="&#208;&#155;&#208;&#190;&#208;&#179;&#208;&#190; 2" fill-rule="evenodd" clip-rule="evenodd" d="M6.47566 0.316692C6.23973 0.503257 6.21247 0.585498 6.2119 1.11482C6.21152 1.43933 6.18423 1.98986 6.15132 2.33806L6.09145 2.97121L5.55405 3.03321C3.48569 3.27203 1.72108 4.22597 0.854957 5.57368C-0.145687 7.13069 -0.28785 9.66713 0.53379 11.3069C1.23565 12.7078 2.65678 13.5205 4.87065 13.7871C5.31649 13.8408 5.71478 13.8848 5.75563 13.8848C5.79648 13.8848 5.82986 14.5545 5.82986 15.373V16.8613L6.09297 16.8121C6.23763 16.785 6.56052 16.736 6.81052 16.7031L7.26497 16.6433L7.26544 16.1477C7.26573 15.8751 7.29376 15.2329 7.32773 14.7206L7.38953 13.7892H7.70525C8.64093 13.7892 10.3274 13.2376 11.2189 12.6399C12.6949 11.6505 13.3598 10.3873 13.4551 8.39192C13.5169 7.09914 13.3967 6.40448 12.9565 5.50958C12.5522 4.68766 11.9205 4.08086 11.0241 3.65376C10.3482 3.33164 8.91694 2.99777 8.20341 2.99576C7.95658 2.99509 7.73166 2.95745 7.70363 2.91207C7.6755 2.8667 7.69358 2.25676 7.74371 1.55664C7.79375 0.856513 7.81872 0.267679 7.7991 0.248096C7.77949 0.228512 7.53295 0.189157 7.2511 0.160594C6.82086 0.116938 6.69667 0.141971 6.47566 0.316692ZM80.0251 0.281345C77.1883 0.913738 75.1068 3.09663 74.2687 6.31831C73.9381 7.58892 73.8601 9.4754 74.0882 10.6822C74.6275 13.5354 76.358 15.6177 78.7805 16.3288C79.4757 16.5328 81.0067 16.5568 81.8421 16.3768C82.6572 16.2011 83.6392 15.7653 84.3312 15.2723C84.9219 14.8514 85.9082 13.9142 85.9082 13.7738C85.9082 13.7334 85.8223 13.6546 85.7174 13.5985C85.5566 13.5125 85.4292 13.571 84.9072 13.9705C83.5678 14.9956 82.2032 15.4655 80.7812 15.3912C80.0233 15.3518 79.8147 15.2994 79.1548 14.9835C78.1165 14.4864 77.3518 13.6946 76.7698 12.5137C76.0377 11.0286 75.9186 10.424 75.9212 8.20087C75.9238 5.9701 76.0449 5.35817 76.7781 3.87118C77.7043 1.99263 79.2173 0.988437 81.1217 0.988437C82.4028 0.988437 83.5006 1.39615 84.2714 2.15808C84.7858 2.66667 85.0392 3.21624 85.1104 3.97721C85.1597 4.50424 85.2004 4.61123 85.3677 4.65498C85.477 4.68345 85.5939 4.66253 85.6273 4.60846C85.6608 4.5543 85.7146 3.85743 85.7468 3.05967C85.7995 1.75782 85.7878 1.58491 85.6332 1.37055C85.4187 1.07336 84.4209 0.561905 83.6598 0.359195C82.8256 0.136902 80.8615 0.0948743 80.0251 0.281345ZM70.3773 0.287929C70.3422 0.322892 70.3135 0.573085 70.3135 0.843715C70.3135 2.00906 69.7688 2.96816 68.1918 4.57952C67.6125 5.17151 66.4322 6.26987 65.5688 7.02024C64.7054 7.77061 63.999 8.41046 63.999 8.44208C63.999 8.63266 68.4123 14.4326 69.2205 15.3042C69.9847 16.1285 70.6773 16.5093 71.2361 16.4126C71.832 16.3096 72.62 16.0727 73.1668 15.8324C73.6175 15.6343 73.6685 15.5834 73.6094 15.3914C73.5727 15.272 73.5358 15.1659 73.5276 15.1555C73.5193 15.1451 73.2274 15.1854 72.8788 15.245C72.3906 15.3285 72.1548 15.3264 71.8516 15.2356C70.9732 14.9729 69.7667 13.6698 67.4503 10.4823C66.6913 9.43766 65.9706 8.45048 65.8488 8.28856L65.6274 7.99424L66.4632 7.28551C68.2321 5.78592 70.2648 3.88885 70.8976 3.14736C72.0161 1.83672 72.208 1.14148 71.6146 0.549014C71.3425 0.277333 71.22 0.224216 70.8652 0.224216C70.6319 0.224216 70.4123 0.25287 70.3773 0.287929ZM39.3599 0.500674C39.2528 0.547005 39.1167 0.64348 39.0573 0.71503C38.9421 0.853832 38.7908 2.88419 38.6839 5.72757L38.6187 7.45775L34.9895 7.52759C32.9933 7.56599 31.338 7.57534 31.3109 7.54831C31.2839 7.52128 31.3019 6.28135 31.3509 4.79303C31.4574 1.56161 31.4198 1.05187 31.0518 0.735675C30.8314 0.546435 30.685 0.510799 30.1291 0.510799C29.5024 0.510799 27.7085 0.83015 27.4544 0.986911C27.3864 1.02885 27.3616 1.14128 27.3962 1.25C27.4509 1.42223 27.5372 1.43895 28.3233 1.42911C29.1602 1.4187 29.1979 1.42749 29.4212 1.68637L29.6524 1.95442L29.6499 4.83879C29.6477 7.45739 29.5921 9.64543 29.4021 14.59L29.3364 16.2981L30.0924 16.2293C30.5081 16.1914 30.8859 16.1245 30.9319 16.0807C30.9779 16.0369 31.0722 14.3104 31.1416 12.2443C31.2109 10.178 31.2702 8.48305 31.2732 8.4777C31.2995 8.43251 34.5429 8.34244 36.3309 8.33728L38.5605 8.33078L38.5527 11.3004C38.5429 15.0717 38.6568 15.7718 39.3546 16.2283C39.7447 16.4835 40.6944 16.4258 41.713 16.0851C42.932 15.6773 43.0435 15.6088 42.9388 15.3313C42.8658 15.1378 42.8171 15.1177 42.5915 15.188C42.4472 15.2331 42.0204 15.2699 41.643 15.2699C40.8551 15.2699 40.5878 15.104 40.3701 14.4796C40.0808 13.6496 40.1618 7.42003 40.5237 2.67527C40.6179 1.44047 40.6416 0.650456 40.5861 0.59505C40.4583 0.467425 39.5909 0.400657 39.3599 0.500674ZM18.8892 0.610522C17.2926 0.668508 16.1667 0.774846 15.2776 0.951381C15.0615 0.994273 15.0145 1.05425 15.0145 1.28658V1.56954L15.7086 1.50677C16.5688 1.42892 17.0771 1.59943 17.1776 1.99941C17.2135 2.14203 17.2173 4.24058 17.1861 6.66278C17.1311 10.9325 17.0269 13.4506 16.8285 15.3078C16.7758 15.8014 16.7541 16.2268 16.7804 16.253C16.8066 16.2793 17.1627 16.2407 17.5716 16.1674C18.603 15.9826 21.037 15.9984 22.2378 16.1978C23.762 16.4508 23.9208 16.4629 24.3832 16.3597C24.9179 16.2404 25.27 15.9196 25.5309 15.3143C25.7429 14.8222 25.9162 13.8324 25.9193 13.0967C25.9211 12.662 25.9098 12.6429 25.6511 12.6429C25.3958 12.6429 25.3749 12.6753 25.2715 13.2307C25.1253 14.0154 24.7968 14.6492 24.4002 14.9116C24.0858 15.1196 23.9979 15.1268 21.7213 15.1324C20.4268 15.1354 19.1585 15.1723 18.903 15.2142L18.4383 15.2905L18.4995 14.516C18.6417 12.7114 18.743 10.9169 18.7453 10.1592C18.7467 9.71259 18.7753 9.18116 18.8089 8.97826L18.8699 8.60925L19.4058 8.66982C20.7763 8.82447 22.4192 8.89411 23.0001 8.82218C23.7861 8.72484 24.0077 8.55088 24.0077 8.03159C24.0077 7.68368 23.9904 7.65837 23.7925 7.71807C23.4387 7.82468 20.568 7.89747 19.6687 7.82267L18.8327 7.75313L18.8882 5.30209C18.9187 3.9541 18.9673 2.53953 18.9963 2.15866L19.0491 1.46608L21.2653 1.46751C23.648 1.46904 23.7838 1.49282 24.1398 1.97161C24.3033 2.19151 24.3445 2.41324 24.3751 3.23735L24.4121 4.23638H24.6824C24.9919 4.23638 24.9873 4.25501 25.1552 2.32582C25.2799 0.893672 25.2781 0.837507 25.1012 0.660876C24.9724 0.532392 24.6455 0.513189 22.8289 0.527614C21.6618 0.53688 19.889 0.574126 18.8892 0.610522ZM44.5296 0.738246C43.634 0.934842 43.5729 0.963322 43.5729 1.18332C43.5729 1.41622 43.581 1.41832 44.4657 1.41832C45.3251 1.41832 45.367 1.42835 45.5898 1.68637L45.8212 1.95442L45.819 4.79102C45.8177 6.35118 45.7768 8.74537 45.7279 10.1114C45.679 11.4775 45.6091 13.4288 45.5725 14.4478L45.506 16.3004L46.2137 16.2342C46.6029 16.1977 46.9961 16.1458 47.0875 16.1189C47.1789 16.0919 47.4119 15.7824 47.6054 15.4311C49.2057 12.5245 53.8095 4.65279 54.7394 3.23334L55.1149 2.66017L55.0572 3.80651C54.8935 7.06037 54.8185 9.59672 54.8185 11.8787C54.8185 15.1002 54.9464 15.7883 55.6282 16.2344C56.0062 16.4817 56.9479 16.4207 57.9907 16.0812C59.1866 15.692 59.3101 15.6156 59.2031 15.3315C59.141 15.1663 59.0743 15.125 58.9517 15.1757C58.6213 15.3126 57.4526 15.3309 57.2063 15.2029C57.0747 15.1347 56.8594 14.8639 56.7279 14.6012C56.5 14.146 56.4871 14.0304 56.4551 12.1398C56.4164 9.85369 56.5674 5.56173 56.7881 2.67231C56.9163 0.994551 56.9198 0.665361 56.8103 0.596103C56.7386 0.550823 56.4349 0.513093 56.1353 0.512233C55.7038 0.511087 55.5406 0.555503 55.3506 0.725734C54.8805 1.14692 48.484 11.8619 47.5205 13.8421C47.4069 14.0757 47.2744 14.2669 47.226 14.2669C47.1759 14.2669 47.1636 14.0111 47.1972 13.6698C47.3159 12.4683 47.5556 4.51924 47.526 2.77108L47.4955 0.97153L47.227 0.741115C46.9911 0.538691 46.8695 0.511846 46.2224 0.519489C45.8175 0.524265 45.0558 0.622658 44.5296 0.738246ZM61.1406 0.663257C59.8778 0.939141 59.775 0.981185 59.8074 1.20864C59.8357 1.40743 59.8838 1.41832 60.7301 1.41832C61.5895 1.41832 61.6314 1.42835 61.8542 1.68637L62.0856 1.95442L62.0834 4.79102C62.0821 6.35118 62.0412 8.74537 61.9923 10.1114C61.9434 11.4775 61.8736 13.4283 61.837 14.4466L61.7705 16.298L62.5261 16.2292C62.9416 16.1914 63.3188 16.1249 63.3643 16.0814C63.4699 15.9808 63.8219 4.72081 63.7865 2.58003L63.7599 0.971439L63.4914 0.741115C63.2553 0.5385 63.1345 0.511944 62.4868 0.520351C62.0819 0.5257 61.4762 0.589987 61.1406 0.663257ZM4.78053 3.86048C3.28115 4.25243 2.40601 5.07043 1.94047 6.515C1.73984 7.13774 1.6609 9.14621 1.80776 9.89448C2.15438 11.6604 3.28889 12.7603 5.07606 13.0631L5.78203 13.1828L5.84297 12.889C5.87646 12.7274 5.93099 11.1121 5.96419 9.29944C5.99739 7.4868 6.05164 5.477 6.08475 4.83343L6.14482 3.66322L5.81992 3.66848C5.6412 3.67134 5.17346 3.75778 4.78053 3.86048ZM7.60585 4.16474C7.54385 4.72453 7.3615 10.7218 7.36102 12.2206L7.36064 13.1834L7.97696 13.101C9.31141 12.9224 10.4623 12.3192 10.9921 11.5206C12.0766 9.88569 12.1275 6.82853 11.095 5.34288C10.534 4.53558 9.91749 4.12854 8.83897 3.85313C7.70142 3.56263 7.67177 3.57008 7.60585 4.16474ZM57.5733 19.9851C57.1059 20.8316 56.1311 21.0267 55.8646 20.3271C55.7615 20.0563 55.6527 20.035 55.4431 20.2442C55.2439 20.443 55.2536 20.5917 55.4845 20.8848C55.8979 21.4096 56.9474 21.263 57.4454 20.6111C57.6637 20.3253 57.9716 19.717 57.9716 19.5717C57.9716 19.4016 57.7934 19.5866 57.5733 19.9851ZM1.9551 21.8204C1.06161 21.9405 0.893611 22.028 1.4289 22.0945L1.85943 22.1479L1.84968 24.0172L1.83991 25.8866L2.76729 25.9054C4.12613 25.933 4.73556 25.6049 4.84549 24.7864C4.89218 24.439 4.86471 24.3661 4.59157 24.1113C4.42318 23.9543 4.13149 23.7969 3.9433 23.7617L3.60117 23.6976L3.974 23.5191C4.59434 23.2223 4.82386 22.7722 4.62238 22.2478C4.46184 21.83 3.28515 21.6414 1.9551 21.8204ZM7.04347 21.8104C6.23111 22.0682 5.63058 22.9807 5.5683 24.0521C5.53529 24.62 5.56428 24.7954 5.75122 25.1567C6.00054 25.6387 6.55909 26.014 7.02579 26.0132C7.42111 26.0124 8.0226 25.7178 8.35918 25.3601C8.69719 25.0009 8.55434 24.9715 8.06909 25.3003C7.54748 25.6537 7.04682 25.627 6.64337 25.2242C6.35253 24.9338 6.11871 24.3856 6.11746 23.9911C6.11708 23.8767 6.22347 23.8114 6.47566 23.7712C7.58949 23.5938 8.32751 23.298 8.5112 22.9552C8.67958 22.6412 8.58534 22.1881 8.30904 21.9832C8.02068 21.7692 7.42836 21.6883 7.04347 21.8104ZM17.0834 21.8535C16.0744 22.2259 15.3846 23.6642 15.6835 24.7725C15.8292 25.3127 16.3823 25.8821 16.8457 25.9688C17.3244 26.0585 17.8841 25.8815 18.3222 25.5018C18.7825 25.1028 18.7107 24.9614 18.2174 25.2957C17.8361 25.5541 17.3756 25.6081 17.0025 25.4384C16.6734 25.2887 16.337 24.7378 16.2831 24.2606C16.2377 23.8588 16.2481 23.8374 16.51 23.7867C16.6609 23.7575 17.0293 23.6859 17.3286 23.6277C18.2483 23.449 18.8471 22.8988 18.7111 22.3574C18.5826 21.8462 17.7781 21.5971 17.0834 21.8535ZM19.4393 21.8842C18.73 22.0622 18.6593 22.2035 19.2958 22.171L19.7503 22.1479L19.7282 24.4406C19.7159 25.7016 19.6717 27.1738 19.6298 27.7124L19.5538 28.6916H19.8673H20.1808V27.4617C20.1808 26.7852 20.208 26.0962 20.2412 25.9304C20.2977 25.648 20.3143 25.6375 20.5057 25.7627C21.3616 26.3227 22.5653 25.8325 23.1123 24.7013C23.3357 24.2391 23.3776 24.0277 23.3814 23.342C23.3852 22.655 23.3518 22.4754 23.1648 22.1751C22.6004 21.2687 21.5557 21.8036 20.6991 23.4376L20.3736 24.0585L20.3967 22.9804C20.4156 22.1079 20.3926 21.8848 20.2765 21.8116C20.1067 21.7044 20.1811 21.6979 19.4393 21.8842ZM24.487 21.8766C23.7861 22.0578 23.6371 22.2132 24.1995 22.1762L24.6296 22.1479L24.6109 24.0455L24.5924 25.943L24.891 25.8834C25.0553 25.8506 25.1959 25.8134 25.2036 25.8009C26.4497 23.7381 26.774 23.2109 27.0394 22.8166L27.3609 22.339L27.2969 23.7764C27.2183 25.5423 27.3023 25.9224 27.7704 25.9192C28.0592 25.9172 28.8871 25.6049 28.8871 25.4979C28.8871 25.4701 28.6945 25.4736 28.459 25.5059C28.0536 25.5613 28.0251 25.5499 27.9222 25.2891C27.8472 25.0994 27.8321 24.5144 27.8733 23.4076L27.9331 21.8012L27.625 21.8313C27.3051 21.8625 27.2722 21.9079 25.3919 24.9073L25.1455 25.3003L25.1996 24.3928C25.2294 23.8937 25.2803 23.1351 25.3128 22.7071C25.3855 21.7489 25.3028 21.6657 24.487 21.8766ZM29.4372 21.8866C28.8488 22.0349 28.6585 22.2598 29.2087 22.1567C29.7514 22.0551 29.7751 22.1521 29.6965 24.1507C29.635 25.7167 29.6441 25.9213 29.7754 25.9213C30.1923 25.9213 30.2265 25.8415 30.2265 24.8688V23.9324L31.018 23.8665C32.3083 23.7592 32.2464 23.7153 32.2975 24.7749C32.3587 26.0442 32.5727 26.2 33.5567 25.6919C33.7247 25.6052 33.8621 25.5191 33.8621 25.5007C33.8621 25.4822 33.6705 25.4886 33.4363 25.515C33.0327 25.5605 33.0066 25.5487 32.934 25.2883C32.8374 24.9418 32.8357 23.7372 32.9303 22.6433L33.0031 21.8013L32.6911 21.8313L32.3791 21.8613L32.3313 22.7211L32.2834 23.5808L31.3028 23.6081L30.3221 23.6353V22.7755C30.3221 21.7379 30.263 21.6785 29.4372 21.8866ZM35.5836 21.8073C34.8816 22.0205 34.4361 22.4193 34.4361 22.8345C34.4361 23.0501 34.6819 23.2465 34.9515 23.2465C35.0692 23.2465 35.0863 23.1577 35.0413 22.779C34.9904 22.3499 35.0067 22.2979 35.2391 22.1458C35.5504 21.9422 36.1082 22.0078 36.381 22.2802C36.5842 22.4831 36.7045 23.3026 36.5618 23.5119C36.516 23.5789 36.2075 23.6774 35.8763 23.7307C35.545 23.7839 35.1053 23.9135 34.8992 24.0185C34.2135 24.3678 33.9451 25.159 34.3416 25.6622C34.7905 26.232 35.572 26.0233 36.1698 25.174L36.5163 24.6819L36.5669 25.1307C36.6274 25.6659 36.8866 25.9213 37.3694 25.9213C37.651 25.9213 38.263 25.6986 38.263 25.5962C38.263 25.5778 38.0736 25.584 37.8421 25.61C37.4668 25.6523 37.4033 25.63 37.2553 25.4045C37.1093 25.1819 37.0975 24.9984 37.1574 23.8708C37.2153 22.7797 37.2019 22.5406 37.0667 22.2562C36.8424 21.7841 36.2501 21.6048 35.5836 21.8073ZM38.5739 21.8842C37.8646 22.0622 37.7939 22.2035 38.4304 22.171L38.8849 22.1479L38.8642 24.2973C38.8528 25.4795 38.8091 26.9517 38.767 27.5691L38.6905 28.6916H39.0029H39.3154V27.4617C39.3154 26.7852 39.3426 26.0962 39.3758 25.9304C39.4323 25.648 39.4489 25.6375 39.6403 25.7627C40.5115 26.3326 41.7357 25.8026 42.2892 24.6158C42.5837 23.9845 42.6079 22.6792 42.3336 22.2236C42.1174 21.8645 41.7163 21.6711 41.3686 21.7583C40.9549 21.8619 40.3115 22.5458 39.8975 23.322L39.5047 24.0585L39.5296 22.9804C39.5499 22.1066 39.5274 21.8849 39.4111 21.8116C39.2413 21.7044 39.3157 21.6979 38.5739 21.8842ZM43.6216 21.8766C42.9207 22.0578 42.7717 22.2132 43.3341 22.1762L43.7642 22.1479L43.7512 24.0346C43.7395 25.7236 43.7545 25.9211 43.8947 25.9198C44.2005 25.917 44.2621 25.7674 44.3238 24.8783C44.3581 24.3836 44.3999 23.9651 44.4164 23.9485C44.4331 23.932 44.885 23.8898 45.4209 23.8547L46.3952 23.7909V24.6111C46.3952 25.0621 46.4393 25.5469 46.4932 25.6884C46.5836 25.926 46.6235 25.942 47.0148 25.898C47.2478 25.8717 47.5805 25.7591 47.7541 25.6477L48.0695 25.4453L47.6247 25.5038C46.9609 25.5913 46.9282 25.4845 46.998 23.4592L47.055 21.8018L46.8006 21.8316C46.4921 21.8676 46.4181 22.0832 46.4048 22.9838L46.3952 23.6286H45.3783H44.3614L44.4282 22.7757C44.5096 21.7371 44.444 21.664 43.6216 21.8766ZM48.5966 21.8766C47.8958 22.0578 47.7467 22.2132 48.3091 22.1762L48.7392 22.1479L48.7292 24.0242L48.7194 25.9004L49.0641 25.8979C49.2537 25.8964 49.6292 25.9052 49.8984 25.9174C50.41 25.9404 50.8213 25.7893 51.0958 25.4773C51.5823 24.9242 51.7038 24.1216 51.3661 23.6928C51.1042 23.3605 50.6347 23.285 49.9178 23.4598L49.3386 23.6011L49.4043 22.762C49.4845 21.7388 49.4168 21.6646 48.5966 21.8766ZM61.4876 21.889C60.9 22.0345 60.7075 22.2601 61.2592 22.1567C61.8061 22.0542 61.8361 22.1674 61.7605 24.0496C61.7011 25.5306 61.7105 25.7127 61.8497 25.766C61.9355 25.7989 62.6895 25.8257 63.5254 25.8257H65.0451L65.0722 26.8927C65.1067 28.2556 65.2594 28.3435 65.4203 27.0931C65.4863 26.5799 65.5644 26.0419 65.594 25.8974C65.6429 25.6585 65.6225 25.6347 65.3679 25.6347C65.214 25.6347 65.0045 25.5735 64.9023 25.4989C64.7354 25.3769 64.7183 25.2533 64.734 24.281C64.7436 23.6857 64.7795 22.887 64.8139 22.5061L64.8765 21.8136H64.5877C64.3957 21.8136 64.282 21.8696 64.2486 21.9808C64.2208 22.0727 64.1856 22.9109 64.1703 23.8435L64.1425 25.5392H63.3088C62.6092 25.5392 62.4604 25.5119 62.3845 25.3702C62.3297 25.2681 62.3214 24.5958 62.3633 23.6746C62.4015 22.8349 62.4153 22.0767 62.3938 21.9895C62.3375 21.7603 62.1097 21.735 61.4876 21.889ZM67.494 21.8655C66.652 22.184 66.063 23.1452 66.0666 24.1952C66.0691 24.9276 66.2404 25.3193 66.7167 25.6821C67.3481 26.1629 68.2368 26.0624 68.8312 25.443C69.1905 25.0685 69.0876 24.9904 68.6371 25.2957C68.1488 25.6265 67.6514 25.6212 67.2463 25.281C66.8997 24.9897 66.6779 24.5356 66.6779 24.117C66.6779 23.8852 66.7249 23.8258 66.941 23.7842C67.0857 23.7563 67.449 23.6859 67.7483 23.6277C68.668 23.449 69.2668 22.8988 69.1307 22.3574C69.0009 21.8409 68.1975 21.5994 67.494 21.8655ZM70.0273 21.8766C69.3604 22.0491 69.1382 22.2431 69.7147 22.1495C70.0817 22.0899 70.1286 22.105 70.2048 22.3068C70.2522 22.4326 70.2559 23.2597 70.2131 24.2014C70.1714 25.1205 70.1534 25.8888 70.1731 25.9085C70.1927 25.9281 70.3128 25.9182 70.4397 25.8863C70.7043 25.8201 70.789 25.4916 70.7908 24.5258L70.7918 23.9424L71.3799 23.881C71.7033 23.8473 72.1554 23.8197 72.3845 23.8197H72.8009L72.8123 24.56C72.8292 25.6651 72.8907 25.8673 73.2219 25.905C73.5066 25.9376 74.288 25.6871 74.3835 25.5328C74.4147 25.4823 74.2557 25.4708 74.0042 25.5051C73.5932 25.5614 73.5657 25.5504 73.4625 25.2891C73.3476 24.998 73.3991 22.3021 73.5258 21.9723C73.583 21.8235 73.5473 21.8038 73.2683 21.8305L72.9445 21.8613L72.8572 22.745L72.7699 23.6286H71.7819H70.7939L70.8543 22.7795C70.9281 21.7411 70.856 21.6624 70.0273 21.8766ZM81.3398 21.8887C80.6331 22.065 80.5595 22.2037 81.1897 22.171C81.5858 22.1506 81.6438 22.1731 81.6919 22.3662C81.7494 22.5967 81.6762 25.296 81.5548 27.4258L81.4826 28.6916H81.7691H82.0556L82.1007 27.2105C82.1255 26.396 82.1665 25.7088 82.1918 25.6835C82.2171 25.6583 82.4071 25.7257 82.6139 25.8334C83.5742 26.3333 84.7936 25.5828 85.1972 24.2436C85.4822 23.2979 85.2925 22.1872 84.7898 21.8583C84.2076 21.4774 83.2764 22.1373 82.6117 23.4018L82.2666 24.0585L82.325 22.9912C82.3799 21.9877 82.3719 21.9178 82.1908 21.821C82.0849 21.7644 81.9845 21.7228 81.968 21.7288C81.9513 21.7347 81.6687 21.8066 81.3398 21.8887ZM11.3025 21.8868C9.68434 21.9032 8.80712 21.9458 8.84453 22.0062C8.87658 22.0579 9.05194 22.1002 9.2343 22.1002C9.50706 22.1002 9.58341 22.1462 9.66482 22.3601C9.75878 22.6068 9.71372 24.8729 9.60025 25.6108C9.56131 25.8639 9.58427 25.921 9.72424 25.9198C10.1238 25.9164 10.1536 25.8101 10.2364 24.0941C10.2805 23.1813 10.3187 22.37 10.3212 22.2912C10.3252 22.1739 10.4583 22.1537 11.0562 22.1798L11.7864 22.2116L11.7171 24.0665C11.6564 25.689 11.6659 25.9213 11.7925 25.9213C12.2174 25.9213 12.2395 25.8576 12.2511 24.5975C12.2573 23.9332 12.2896 23.1148 12.3229 22.7786L12.3835 22.1674L12.7662 22.1281C12.9766 22.1066 13.2861 22.1144 13.4539 22.1455L13.759 22.2022L13.7888 23.974C13.8257 26.1725 13.85 26.2064 15.0384 25.7193C15.4328 25.5577 15.3557 25.461 14.8757 25.515C14.4872 25.5587 14.4459 25.5432 14.4021 25.3361C14.2891 24.8019 14.2787 24.2746 14.3591 23.1611C14.4062 22.5099 14.421 21.9534 14.392 21.9245C14.3246 21.857 14.2867 21.8566 11.3025 21.8868ZM52.3603 21.96C52.3293 22.0405 52.2984 22.925 52.2915 23.9256C52.2803 25.5702 52.2955 25.7567 52.45 25.8699C52.662 26.0253 53.1513 25.9294 53.593 25.646L53.9055 25.4453L53.4536 25.5049C53.0216 25.5618 52.9967 25.5522 52.8928 25.2891C52.7831 25.011 52.8353 22.4874 52.9604 22.0285C53.0121 21.8388 52.9837 21.8136 52.7178 21.8136C52.5354 21.8136 52.3944 21.8714 52.3603 21.96ZM54.2165 21.9285C53.7881 22.0421 53.7246 22.2461 54.1437 22.1624C54.6799 22.0554 54.7196 22.1239 54.7098 23.1373C54.7048 23.644 54.6724 24.4615 54.6376 24.9541C54.5885 25.6524 54.6023 25.8604 54.7006 25.898C54.9376 25.9889 55.2646 25.7473 55.5305 25.2849C55.8418 24.7435 57.3171 22.3867 57.3446 22.3867C57.355 22.3867 57.3442 23.0888 57.3207 23.9469C57.2688 25.8386 57.3088 25.9668 57.9287 25.8971C58.1578 25.8713 58.4872 25.7599 58.6608 25.6495L58.9762 25.4488L58.4789 25.5067C57.9973 25.5627 57.9796 25.5563 57.9159 25.3028C57.8797 25.1589 57.8712 24.3127 57.8969 23.4224L57.9437 21.8036L57.6506 21.8325C57.3141 21.8656 57.2401 21.9607 56.0369 23.9061C55.1175 25.3926 55.126 25.3989 55.2738 23.3429C55.3207 22.6881 55.3393 22.0763 55.3149 21.983C55.2643 21.79 54.8218 21.7679 54.2165 21.9285ZM76.9388 21.8851C75.375 21.902 74.4274 21.9477 74.4274 22.0062C74.4274 22.0578 74.5765 22.1002 74.7589 22.1002C75.2706 22.1002 75.3136 22.2684 75.2435 23.9952C75.21 24.8181 75.1626 25.5882 75.138 25.7063C75.0899 25.9382 75.3032 25.9997 75.5702 25.831C75.6949 25.7523 75.8035 24.4545 75.855 22.4266C75.8612 22.1796 75.8972 22.136 76.0778 22.1559C76.1961 22.169 76.5251 22.1834 76.8089 22.1878L77.3247 22.1957L77.2558 24.0585C77.1959 25.6793 77.2055 25.9213 77.3301 25.9213C77.7486 25.9213 77.7755 25.8493 77.7885 24.6931C77.7954 24.0813 77.8276 23.2584 77.8602 22.8644L77.9195 22.1479L78.2979 22.1171C78.5061 22.1002 78.8182 22.1129 78.9916 22.1453L79.3067 22.2044V23.8177C79.3067 24.7051 79.3487 25.5415 79.4 25.6762C79.5093 25.9633 79.8786 26.0046 80.3983 25.7877C80.8734 25.5895 80.9061 25.4526 80.4643 25.5118C79.8884 25.5889 79.8441 25.4313 79.9043 23.5204C79.9565 21.8654 79.9354 21.7615 79.562 21.8358C79.5005 21.8481 78.3201 21.8702 76.9388 21.8851ZM2.75676 21.9728C2.59536 22.0156 2.48131 22.5483 2.48131 23.2599C2.48131 23.6183 2.49078 23.6286 2.81923 23.6286C3.26019 23.6286 3.77854 23.4082 3.90875 23.1653C4.09302 22.8214 4.03619 22.3107 3.79681 22.1608C3.55763 22.011 2.99594 21.9096 2.75676 21.9728ZM6.86783 22.1498C6.60559 22.2921 6.24949 22.9235 6.19553 23.342C6.16721 23.5615 6.19179 23.5786 6.49957 23.5519C7.66994 23.4506 8.30579 22.7573 7.74333 22.1957C7.51984 21.9725 7.22335 21.9571 6.86783 22.1498ZM17.0714 22.0949C16.7848 22.2121 16.5671 22.492 16.4042 22.9528C16.1853 23.5722 16.2033 23.624 16.617 23.568C17.6013 23.4348 18.1465 23.0349 18.0216 22.538C17.9131 22.1063 17.5069 21.9169 17.0714 22.0949ZM67.4911 22.0949C67.2045 22.2121 66.9867 22.492 66.8239 22.9528C66.5999 23.5867 66.6203 23.6466 67.0367 23.579C68.2956 23.3749 68.8216 22.799 68.2608 22.2392C68.0183 21.9969 67.8213 21.96 67.4911 22.0949ZM21.5348 22.7194C21.0103 23.1924 20.2824 24.648 20.2775 25.2334C20.2763 25.3802 20.9952 25.7251 21.3088 25.7281C21.7637 25.7325 22.2538 25.3776 22.5147 24.855C22.8058 24.2716 22.8575 23.2729 22.6254 22.718C22.4334 22.2594 22.0441 22.2599 21.5348 22.7194ZM40.6535 22.7336C40.2344 23.1118 39.5551 24.3866 39.4514 24.9898C39.3913 25.3393 39.3998 25.3525 39.8071 25.537C40.3314 25.7745 40.5708 25.7769 41.0182 25.549C41.5443 25.281 41.827 24.7142 41.8786 23.8236C41.9599 22.4218 41.4762 21.9915 40.6535 22.7336ZM83.4701 22.6847C83.0636 23.041 82.5383 23.9561 82.3286 24.6729C82.2452 24.9583 82.1769 25.2231 82.1769 25.2614C82.1769 25.2997 82.3734 25.4261 82.6136 25.5421C83.7321 26.0827 84.6613 25.2239 84.6635 23.6477C84.6652 22.4027 84.2103 22.0358 83.4701 22.6847ZM49.472 23.8083C49.3825 23.8648 49.339 24.1452 49.3284 24.733L49.3132 25.5766L49.6242 25.6673C50.3229 25.8709 50.9875 25.3338 50.9875 24.5655C50.9875 24.0193 50.6607 23.7237 50.059 23.7256C49.8067 23.7264 49.5425 23.7636 49.472 23.8083ZM2.4416 24.6326C2.40525 25.0797 2.39884 25.4832 2.42735 25.5292C2.52121 25.681 3.15686 25.7431 3.49037 25.6332C4.18017 25.4059 4.4385 24.6012 3.96291 24.1611C3.71234 23.9293 3.34457 23.8197 2.81741 23.8197H2.50763L2.4416 24.6326ZM36.206 23.8671C36.1534 23.885 35.9502 23.9263 35.7544 23.9589C35.2104 24.0497 34.8188 24.4267 34.8188 24.8599C34.8188 25.0548 34.8704 25.266 34.9336 25.329C35.2734 25.6683 36.0407 25.2442 36.361 24.54C36.6339 23.9404 36.5873 23.7381 36.206 23.8671Z" fill="#F07E00"/>
</svg>
