<svg width="20" height="20" viewBox="0 0 20 20" fill="none" xmlns="http://www.w3.org/2000/svg">
<path id="paw 1 (Traced)" fill-rule="evenodd" clip-rule="evenodd" d="M4.90452 2.52965C4.27637 2.92373 3.8338 3.70189 3.70655 4.636C3.56341 5.68688 3.82357 6.94839 4.37406 7.87262C5.07423 9.04813 6.10933 9.61893 7.05918 9.35325C7.40531 9.2564 7.61637 9.13978 7.8612 8.91001C8.86399 7.96899 9.04759 5.97082 8.28629 4.28388C7.76547 3.12976 6.86127 2.36388 5.9236 2.2826C5.65515 2.25932 5.13407 2.38565 4.90452 2.52965ZM10.4364 0.91832C9.65441 1.3558 9.16538 2.27805 9.09537 3.44729C8.9916 5.18046 9.90649 7.0648 11.138 7.65439C11.6359 7.89274 12.0518 7.93247 12.546 7.78893C13.4934 7.51368 14.1216 6.46867 14.1756 5.07815C14.218 3.98487 13.8505 2.75397 13.2327 1.92003C12.6763 1.16897 11.9182 0.730423 11.1892 0.737971C10.9784 0.740135 10.5875 0.833779 10.4364 0.91832ZM1.60756 9.02325C1.32121 9.22161 1.16501 9.39533 1.01485 9.68249C0.851884 9.99416 0.769145 10.3413 0.753691 10.7782C0.744524 11.038 0.762835 11.1646 0.869707 11.58C1.01803 12.1565 1.19096 12.5128 1.52946 12.9394C1.79668 13.2762 1.96646 13.4315 2.29585 13.6405C3.89622 14.6557 5.48194 13.4413 5.14049 11.4619C4.99902 10.6419 4.60391 9.92766 3.98972 9.38144C3.26359 8.73572 2.244 8.58238 1.60756 9.02325ZM16.3161 4.79514C15.8943 5.00092 15.4155 5.60462 15.2175 6.18033C14.7224 7.61936 15.1181 9.21995 16.1317 9.87861C16.5858 10.1737 17.0501 10.2316 17.5363 10.0538C18.1298 9.83683 18.6547 9.23394 18.8987 8.4891C18.9995 8.18152 19.0779 7.6405 19.0761 7.26482C19.0737 6.75949 18.8918 6.03321 18.6763 5.66834C18.4575 5.29808 18.2228 5.04157 17.9348 4.85814C17.4348 4.5396 16.8838 4.51816 16.3161 4.79514ZM9.23672 9.03599C8.69867 9.30696 8.37884 9.51939 7.98534 9.86717C6.52034 11.1619 5.52016 13.4249 5.41645 15.6798C5.38924 16.2714 5.40581 16.6381 5.48412 17.1759C5.6425 18.2636 5.96378 18.8877 6.55 19.2463C7.04507 19.5491 7.5145 19.5935 8.28281 19.4101C8.81826 19.2823 9.20052 19.1218 10.5645 18.4518C12.104 17.6955 12.0417 17.7125 13.9182 17.5321C15.1665 17.4122 15.7496 17.314 16.2477 17.1401C17.5181 16.6965 18.054 15.8032 17.8152 14.5273C17.6951 13.8858 17.3817 13.1206 16.9415 12.3939C15.7921 10.4962 13.8597 9.0666 11.9855 8.72708C11.1867 8.58241 10.8038 8.59996 9.97881 8.81895C9.61695 8.915 9.28302 9.01269 9.23672 9.03599Z" fill="#F17F01" fill-opacity="0.3"/>
</svg>
