<svg width="129" height="146" viewBox="0 0 129 146" fill="none" xmlns="http://www.w3.org/2000/svg">
<g id="Group 37">
<path id="paw 1 (Traced)" fill-rule="evenodd" clip-rule="evenodd" d="M34.5712 108.447C33.4688 107.502 31.7911 107.093 30.0298 107.341C28.0484 107.619 25.9401 108.742 24.6206 110.223C22.9424 112.105 22.5624 114.29 23.6348 115.889C24.0257 116.471 24.3677 116.797 24.9345 117.126C27.2559 118.475 30.968 117.784 33.5287 115.527C35.2806 113.982 36.0937 111.937 35.6535 110.182C35.5275 109.68 34.9741 108.793 34.5712 108.447ZM40.9326 117.726C39.6558 116.522 37.6896 116.103 35.5409 116.575C32.3558 117.276 29.5359 119.915 29.2448 122.468C29.1272 123.5 29.3158 124.28 29.8834 125.109C30.9716 126.699 33.2459 127.31 35.783 126.694C37.7777 126.21 39.7637 124.907 40.8786 123.35C41.8826 121.947 42.1978 120.337 41.7282 119.009C41.5924 118.625 41.1793 117.959 40.9326 117.726ZM20.8186 105.759C20.2823 105.338 19.8719 105.142 19.261 105.015C18.5979 104.877 17.9212 104.904 17.1251 105.101C16.6516 105.217 16.4351 105.316 15.7542 105.724C14.8091 106.291 14.2759 106.79 13.7195 107.628C13.2804 108.289 13.107 108.679 12.9369 109.388C12.1104 112.834 15.2886 115.107 18.6384 113.466C20.0261 112.787 21.0648 111.698 21.6639 110.295C22.3722 108.637 22.0104 106.695 20.8186 105.759ZM37.6315 130.46C36.9972 129.795 35.6109 129.23 34.4505 129.164C31.5502 128.999 28.9162 130.544 28.3646 132.734C28.1174 133.715 28.3036 134.593 28.9278 135.39C29.6897 136.363 31.1034 137.012 32.597 137.075C33.2138 137.102 34.2368 136.967 34.912 136.771C35.8202 136.507 37.0139 135.801 37.5359 135.22C38.0657 134.63 38.3806 134.07 38.5307 133.449C38.7913 132.372 38.4852 131.355 37.6315 130.46ZM25.5682 119.704C24.7438 118.86 24.1613 118.385 23.289 117.845C20.0418 115.833 15.342 115.168 11.2178 116.137C10.1357 116.391 9.486 116.61 8.56664 117.029C6.70763 117.877 5.78513 118.785 5.50629 120.04C5.27088 121.1 5.48457 121.98 6.29533 123.29C6.86032 124.202 7.38847 124.818 9.44798 126.966C11.7725 129.39 11.7029 129.285 13.2015 132.621C14.1984 134.84 14.7399 135.855 15.3645 136.675C16.9579 138.769 18.9013 139.289 21.0488 138.197C22.1285 137.648 23.31 136.683 24.3429 135.505C27.0402 132.431 28.4051 128.166 27.8439 124.567C27.6046 123.034 27.3335 122.343 26.4231 120.948C26.0239 120.337 25.6391 119.777 25.5682 119.704Z" fill="#ECA1A1"/>
<path id="paw 1 (Traced)_2" fill-rule="evenodd" clip-rule="evenodd" d="M42.6245 50.1488C41.5302 49.1944 39.856 48.7715 38.0927 49.004C36.109 49.2657 33.9912 50.3712 32.6591 51.8406C30.9648 53.7094 30.566 55.8905 31.6248 57.4983C32.0107 58.0842 32.3499 58.4127 32.9138 58.7467C35.2236 60.1148 38.9415 59.4551 41.5214 57.2192C43.2864 55.6896 44.1171 53.6512 43.6918 51.8927C43.5701 51.3893 43.0243 50.4975 42.6245 50.1488ZM48.9062 59.4806C47.6398 58.2661 45.6772 57.8299 43.5245 58.2845C40.3336 58.9584 37.4911 61.5741 37.1783 64.1244C37.0518 65.1554 37.2337 65.9371 37.7942 66.771C38.8688 68.3696 41.1377 68.9996 43.68 68.4053C45.6788 67.938 47.6759 66.651 48.804 65.1034C49.82 63.7095 50.149 62.1019 49.6908 60.77C49.5583 60.3848 49.1509 59.7153 48.9062 59.4806ZM28.8953 47.3456C28.3627 46.9198 27.954 46.7202 27.3441 46.5883C26.6823 46.4451 26.0054 46.4666 25.2076 46.6561C24.7332 46.7688 24.5158 46.8655 23.8314 47.2683C22.8816 47.8275 22.344 48.322 21.7805 49.1549C21.3358 49.8123 21.1591 50.2008 20.9829 50.9085C20.1269 54.3467 23.2855 56.6466 26.6492 55.0342C28.0427 54.3662 29.0907 53.2862 29.7018 51.8886C30.4242 50.2363 30.0791 48.2918 28.8953 47.3456ZM45.4962 72.1859C44.8676 71.5157 43.4862 70.9395 42.3265 70.8637C39.4277 70.6741 36.7806 72.197 36.2102 74.3824C35.9546 75.3615 36.1333 76.241 36.7506 77.0433C37.5042 78.0224 38.9123 78.6835 40.4053 78.7593C41.0218 78.7906 42.0459 78.6644 42.7228 78.4739C43.6332 78.2176 44.8329 77.5222 45.3599 76.9454C45.8947 76.3601 46.2144 75.8021 46.3698 75.1831C46.6397 74.1082 46.3423 73.0879 45.4962 72.1859ZM33.5254 61.3297C32.7083 60.479 32.1299 59.9989 31.2622 59.4513C28.0323 57.4127 23.3384 56.7084 19.206 57.6426C18.1218 57.8877 17.4703 58.1008 16.5474 58.5125C14.6812 59.3449 13.7509 60.2446 13.4614 61.4974C13.2169 62.5555 13.423 63.4377 14.2225 64.7539C14.7797 65.6712 15.3026 66.2915 17.3436 68.4565C19.6473 70.9 19.5786 70.7945 21.0486 74.1426C22.0265 76.3699 22.5592 77.3892 23.1768 78.2151C24.7522 80.3216 26.6911 80.8581 28.8479 79.7843C29.9322 79.2446 31.122 78.2889 32.1649 77.1201C34.8884 74.068 36.2898 69.815 35.7594 66.2118C35.5333 64.6763 35.2681 63.9834 34.3697 62.5811C33.9757 61.966 33.5957 61.4029 33.5254 61.3297Z" fill="#ECA1A1"/>
<path id="paw 1 (Traced)_3" fill-rule="evenodd" clip-rule="evenodd" d="M101.194 65.8221C100.151 64.8132 98.5011 64.3055 96.728 64.4479C94.7333 64.6081 92.5607 65.6043 91.1538 67.0038C89.3644 68.7838 88.8526 70.9416 89.8262 72.6013C90.181 73.2061 90.5026 73.5514 91.0484 73.9138C93.2839 75.3978 97.0312 74.9283 99.7241 72.827C101.567 71.3893 102.502 69.3959 102.169 67.6181C102.074 67.1091 101.575 66.1908 101.194 65.8221ZM106.981 75.4617C105.78 74.1842 103.843 73.6486 101.669 73.9929C98.4473 74.5033 95.4724 76.9706 95.0271 79.5016C94.8471 80.5248 94.9881 81.3148 95.5043 82.1761C96.4942 83.8274 98.7273 84.5721 101.297 84.1081C103.318 83.7433 105.379 82.5598 106.586 81.0718C107.674 79.7316 108.086 78.1428 107.698 76.7894C107.585 76.3979 107.214 75.7086 106.981 75.4617ZM87.6292 62.323C87.1195 61.8707 86.7217 61.6505 86.1195 61.4876C85.4661 61.3109 84.7889 61.2979 83.9823 61.4464C83.5026 61.5348 83.2805 61.6203 82.5761 61.9878C81.5983 62.4978 81.0357 62.9642 80.4296 63.7673C79.9512 64.4012 79.7545 64.7802 79.5417 65.4779C78.5077 68.868 81.5424 71.3258 84.9856 69.8869C86.412 69.2908 87.5149 68.2657 88.198 66.9011C89.0055 65.2878 88.7621 63.3283 87.6292 62.323ZM102.914 87.9763C102.321 87.275 100.972 86.6292 99.8174 86.4943C96.9323 86.1573 94.2094 87.5432 93.5259 89.6967C93.2196 90.6614 93.3523 91.5489 93.927 92.3815C94.6286 93.3977 96.0004 94.1298 97.4874 94.2815C98.1015 94.3442 99.1308 94.2704 99.8167 94.1146C100.739 93.905 101.974 93.2717 102.53 92.7226C103.095 92.1652 103.443 91.6243 103.63 91.014C103.956 89.9543 103.712 88.9202 102.914 87.9763ZM91.5247 76.5245C90.7529 75.6333 90.2003 75.1243 89.3624 74.5333C86.2429 72.3328 81.592 71.3902 77.4164 72.1125C76.3209 72.302 75.6591 72.4817 74.7159 72.8458C72.8088 73.582 71.833 74.4331 71.4785 75.6695C71.1793 76.7137 71.3392 77.6052 72.0691 78.9604C72.5777 79.9049 73.0675 80.5511 74.9931 82.8172C77.1665 85.3748 77.1034 85.266 78.397 88.6845C79.2575 90.9587 79.7364 92.0038 80.3102 92.86C81.7738 95.044 83.6821 95.6786 85.892 94.7162C87.003 94.2324 88.241 93.3387 89.3434 92.2246C92.2223 89.3154 93.8433 85.1394 93.5013 81.5139C93.3555 79.9689 93.1268 79.2635 92.3026 77.8172C91.9412 77.1829 91.5911 76.6012 91.5247 76.5245Z" fill="#ECA1A1"/>
<path id="paw 1 (Traced)_4" fill-rule="evenodd" clip-rule="evenodd" d="M114.77 10.7413C113.7 9.76033 112.037 9.29649 110.268 9.48575C108.279 9.69868 106.134 10.752 104.765 12.1882C103.025 14.0149 102.571 16.1855 103.59 17.8188C103.961 18.414 104.292 18.7507 104.847 19.0985C107.122 20.5228 110.855 19.9544 113.49 17.7825C115.293 16.2967 116.174 14.2792 115.793 12.5108C115.684 12.0046 115.161 11.0997 114.77 10.7413ZM120.816 20.2243C119.58 18.979 117.629 18.4949 115.466 18.8966C112.259 19.4921 109.352 22.0372 108.975 24.5791C108.823 25.6067 108.985 26.3926 109.525 27.24C110.559 28.8644 112.811 29.5499 115.368 29.018C117.378 28.5999 119.406 27.3623 120.573 25.8428C121.624 24.4743 121.993 22.8752 121.568 21.5325C121.445 21.1441 121.055 20.4649 120.816 20.2243ZM101.115 7.60231C100.594 7.16364 100.19 6.9541 99.5837 6.80723C98.9257 6.64785 98.2484 6.65273 97.4461 6.82259C96.969 6.92365 96.7493 7.01498 96.055 7.40095C95.0914 7.93665 94.5417 8.4178 93.9575 9.23661C93.4964 9.88299 93.31 10.267 93.1161 10.9702C92.1742 14.3864 95.2743 16.7629 98.6773 15.2335C100.087 14.5999 101.162 13.5459 101.808 12.1637C102.571 10.5297 102.275 8.57729 101.115 7.60231ZM117.089 32.8421C116.477 32.1567 115.11 31.5468 113.953 31.4425C111.06 31.1819 108.375 32.6394 107.75 34.8102C107.47 35.7827 107.627 36.6663 108.224 37.4835C108.953 38.4807 110.344 39.1762 111.835 39.2886C112.45 39.335 113.477 39.234 114.158 39.0601C115.075 38.8262 116.292 38.1604 116.833 37.5968C117.382 37.0247 117.716 36.4747 117.887 35.8597C118.184 34.7917 117.912 33.7645 117.089 32.8421ZM105.394 21.6956C104.598 20.8252 104.032 20.3311 103.178 19.7624C100 17.6452 95.3256 16.8261 91.171 17.6586C90.081 17.877 89.4243 18.0741 88.4914 18.463C86.6049 19.2494 85.6524 20.1261 85.3315 21.3714C85.0606 22.4231 85.2446 23.3101 86.0109 24.6456C86.5449 25.5762 87.052 26.2092 89.0382 28.4235C91.2799 30.9228 91.2139 30.8156 92.5995 34.1987C93.5213 36.4493 94.0283 37.4814 94.625 38.3221C96.1471 40.4666 98.072 41.0505 100.255 40.0299C101.353 39.5169 102.566 38.5907 103.638 37.4479C106.437 34.4635 107.944 30.2461 107.505 26.631C107.317 25.0905 107.069 24.3913 106.206 22.9674C105.828 22.3428 105.462 21.7706 105.394 21.6956Z" fill="#ECA1A1"/>
</g>
</svg>
