<svg width="129" height="146" viewBox="0 0 129 146" fill="none" xmlns="http://www.w3.org/2000/svg">
<g id="Group 38">
<path id="paw 1 (Traced)" fill-rule="evenodd" clip-rule="evenodd" d="M34.5712 37.2515C33.4688 38.1967 31.7911 38.6056 30.0298 38.3583C28.0484 38.0801 25.9401 36.9568 24.6206 35.4763C22.9424 33.5934 22.5624 31.4091 23.6348 29.8102C24.0257 29.2276 24.3677 28.9019 24.9345 28.5726C27.2559 27.2238 30.968 27.9147 33.5287 30.1721C35.2806 31.7164 36.0937 33.7618 35.6535 35.5166C35.5275 36.019 34.9741 36.9061 34.5712 37.2515ZM40.9326 27.9726C39.6558 29.1765 37.6896 29.5963 35.5409 29.1236C32.3558 28.423 29.5359 25.7837 29.2448 23.2308C29.1272 22.1988 29.3158 21.4186 29.8834 20.5895C30.9716 18.9999 33.2459 18.3889 35.783 19.0045C37.7777 19.4886 39.7637 20.7922 40.8786 22.3492C41.8826 23.7515 42.1978 25.3619 41.7282 26.6898C41.5924 27.0739 41.1793 27.74 40.9326 27.9726ZM20.8186 39.9397C20.2823 40.3609 19.8719 40.5571 19.261 40.6839C18.5979 40.8216 17.9212 40.7944 17.1251 40.5983C16.6516 40.4816 16.4351 40.3831 15.7542 39.9745C14.8091 39.4074 14.2759 38.9084 13.7195 38.0709C13.2804 37.4097 13.107 37.0197 12.9369 36.3106C12.1104 32.8653 15.2886 30.592 18.6384 32.2325C20.0261 32.9121 21.0648 34.0009 21.6639 35.4035C22.3722 37.0618 22.0104 39.0034 20.8186 39.9397ZM37.6315 15.2392C36.9972 15.9041 35.6109 16.4687 34.4505 16.5348C31.5502 16.7002 28.9162 15.1552 28.3646 12.965C28.1174 11.9838 28.3036 11.1059 28.9278 10.3088C29.6897 9.33608 31.1034 8.68674 32.597 8.62347C33.2138 8.59732 34.2368 8.73206 34.912 8.92825C35.8202 9.19218 37.0139 9.89756 37.5359 10.4787C38.0657 11.0686 38.3806 11.6292 38.5307 12.2495C38.7913 13.3266 38.4852 14.3443 37.6315 15.2392ZM25.5682 25.9948C24.7438 26.8386 24.1613 27.3139 23.289 27.8542C20.0418 29.8657 15.342 30.5306 11.2178 29.5619C10.1357 29.3077 9.486 29.0891 8.56664 28.6698C6.70763 27.8218 5.78513 26.9143 5.50629 25.6591C5.27088 24.5991 5.48457 23.7186 6.29533 22.4091C6.86032 21.4965 7.38847 20.8806 9.44798 18.7328C11.7725 16.3087 11.7029 16.4136 13.2015 13.0779C14.1984 10.8589 14.7399 9.84403 15.3645 9.02339C16.9579 6.93018 18.9013 6.40993 21.0488 7.50169C22.1285 8.05051 23.31 9.01609 24.3429 10.1936C27.0402 13.2683 28.4051 17.533 27.8439 21.1316C27.6046 22.6652 27.3335 23.3558 26.4231 24.7505C26.0239 25.3623 25.6391 25.9222 25.5682 25.9948Z" fill="#ECA1A1"/>
<path id="paw 1 (Traced)_2" fill-rule="evenodd" clip-rule="evenodd" d="M42.6245 95.5501C41.5302 96.5045 39.856 96.9274 38.0927 96.6948C36.109 96.4332 33.9912 95.3276 32.6591 93.8583C30.9648 91.9894 30.566 89.8084 31.6248 88.2006C32.0107 87.6147 32.3499 87.2861 32.9138 86.9521C35.2236 85.584 38.9415 86.2438 41.5214 88.4796C43.2864 90.0092 44.1171 92.0477 43.6918 93.8061C43.5701 94.3096 43.0243 95.2013 42.6245 95.5501ZM48.9062 86.2182C47.6398 87.4328 45.6772 87.869 43.5245 87.4143C40.3336 86.7404 37.4911 84.1248 37.1783 81.5744C37.0518 80.5434 37.2337 79.7617 37.7942 78.9279C38.8688 77.3292 41.1377 76.6992 43.68 77.2936C45.6788 77.7609 47.6759 79.0478 48.804 80.5955C49.82 81.9893 50.149 83.597 49.6908 84.9288C49.5583 85.3141 49.1509 85.9835 48.9062 86.2182ZM28.8953 98.3533C28.3627 98.779 27.954 98.9786 27.3441 99.1106C26.6823 99.2538 26.0054 99.2323 25.2076 99.0428C24.7332 98.9301 24.5158 98.8334 23.8314 98.4305C22.8816 97.8714 22.344 97.3769 21.7805 96.544C21.3358 95.8865 21.1591 95.498 20.9829 94.7904C20.1269 91.3521 23.2855 89.0523 26.6492 90.6646C28.0427 91.3326 29.0907 92.4126 29.7018 93.8102C30.4242 95.4625 30.0791 97.407 28.8953 98.3533ZM45.4962 73.5129C44.8676 74.1831 43.4862 74.7593 42.3265 74.8351C39.4277 75.0247 36.7806 73.5019 36.2102 71.3164C35.9546 70.3373 36.1333 69.4578 36.7506 68.6556C37.5042 67.6765 38.9123 67.0153 40.4053 66.9396C41.0218 66.9083 42.0459 67.0344 42.7228 67.225C43.6332 67.4813 44.8329 68.1766 45.3599 68.7534C45.8947 69.3388 46.2144 69.8968 46.3698 70.5158C46.6397 71.5907 46.3423 72.6109 45.4962 73.5129ZM33.5254 84.3692C32.7083 85.2199 32.1299 85.6999 31.2622 86.2475C28.0323 88.2861 23.3384 88.9904 19.206 88.0563C18.1218 87.8112 17.4703 87.598 16.5474 87.1864C14.6812 86.354 13.7509 85.4542 13.4614 84.2014C13.2169 83.1434 13.423 82.2612 14.2225 80.9449C14.7797 80.0276 15.3026 79.4073 17.3436 77.2424C19.6473 74.7989 19.5786 74.9044 21.0486 71.5562C22.0265 69.329 22.5592 68.3096 23.1768 67.4838C24.7522 65.3773 26.6911 64.8408 28.8479 65.9145C29.9322 66.4543 31.122 67.4099 32.1649 68.5788C34.8884 71.6308 36.2898 75.8839 35.7594 79.4871C35.5333 81.0226 35.2681 81.7154 34.3697 83.1178C33.9757 83.7328 33.5957 84.296 33.5254 84.3692Z" fill="#ECA1A1"/>
<path id="paw 1 (Traced)_3" fill-rule="evenodd" clip-rule="evenodd" d="M101.194 79.8768C100.151 80.8856 98.5011 81.3933 96.728 81.2509C94.7333 81.0907 92.5607 80.0946 91.1538 78.695C89.3644 76.915 88.8526 74.7572 89.8262 73.0976C90.181 72.4928 90.5026 72.1474 91.0484 71.7851C93.2839 70.3011 97.0312 70.7705 99.7241 72.8719C101.567 74.3095 102.502 76.3029 102.169 78.0807C102.074 78.5897 101.575 79.5081 101.194 79.8768ZM106.981 70.2372C105.78 71.5146 103.843 72.0503 101.669 71.7059C98.4473 71.1955 95.4724 68.7282 95.0271 66.1972C94.8471 65.174 94.9881 64.3841 95.5043 63.5228C96.4942 61.8715 98.7273 61.1267 101.297 61.5907C103.318 61.9555 105.379 63.139 106.586 64.6271C107.674 65.9673 108.086 67.5561 107.698 68.9095C107.585 69.301 107.214 69.9903 106.981 70.2372ZM87.6292 83.3759C87.1195 83.8282 86.7217 84.0483 86.1195 84.2112C85.4661 84.3879 84.7889 84.401 83.9823 84.2524C83.5026 84.164 83.2805 84.0785 82.5761 83.7111C81.5983 83.2011 81.0357 82.7346 80.4296 81.9316C79.9512 81.2976 79.7545 80.9187 79.5417 80.2209C78.5077 76.8309 81.5424 74.3731 84.9856 75.8119C86.412 76.408 87.5149 77.4332 88.198 78.7978C89.0055 80.4111 88.7621 82.3706 87.6292 83.3759ZM102.914 57.7225C102.321 58.4239 100.972 59.0697 99.8174 59.2045C96.9323 59.5416 94.2094 58.1556 93.5259 56.0022C93.2196 55.0374 93.3523 54.15 93.927 53.3173C94.6286 52.3011 96.0004 51.5691 97.4874 51.4173C98.1015 51.3547 99.1308 51.4285 99.8167 51.5842C100.739 51.7938 101.974 52.4271 102.53 52.9763C103.095 53.5336 103.443 54.0746 103.63 54.6849C103.956 55.7446 103.712 56.7786 102.914 57.7225ZM91.5247 69.1744C90.7529 70.0656 90.2003 70.5745 89.3624 71.1656C86.2429 73.3661 81.592 74.3086 77.4164 73.5863C76.3209 73.3968 75.6591 73.2172 74.7159 72.8531C72.8088 72.1169 71.833 71.2657 71.4785 70.0293C71.1793 68.9852 71.3392 68.0937 72.0691 66.7384C72.5777 65.7939 73.0675 65.1478 74.9931 62.8817C77.1665 60.324 77.1034 60.4329 78.397 57.0143C79.2575 54.7402 79.7364 53.695 80.3102 52.8388C81.7738 50.6548 83.6821 50.0203 85.892 50.9826C87.003 51.4664 88.241 52.3602 89.3434 53.4743C92.2223 56.3835 93.8433 60.5595 93.5013 64.1849C93.3555 65.7299 93.1268 66.4354 92.3026 67.8816C91.9412 68.516 91.5911 69.0977 91.5247 69.1744Z" fill="#ECA1A1"/>
<path id="paw 1 (Traced)_4" fill-rule="evenodd" clip-rule="evenodd" d="M114.77 134.958C113.7 135.939 112.037 136.402 110.268 136.213C108.279 136 106.134 134.947 104.765 133.511C103.025 131.684 102.571 129.513 103.59 127.88C103.961 127.285 104.292 126.948 104.847 126.6C107.122 125.176 110.855 125.744 113.49 127.916C115.293 129.402 116.174 131.42 115.793 133.188C115.684 133.694 115.161 134.599 114.77 134.958ZM120.816 125.475C119.58 126.72 117.629 127.204 115.466 126.802C112.259 126.207 109.352 123.662 108.975 121.12C108.823 120.092 108.985 119.306 109.525 118.459C110.559 116.834 112.811 116.149 115.368 116.681C117.378 117.099 119.406 118.337 120.573 119.856C121.624 121.225 121.993 122.824 121.568 124.166C121.445 124.555 121.055 125.234 120.816 125.475ZM101.115 138.097C100.594 138.535 100.19 138.745 99.5837 138.892C98.9257 139.051 98.2484 139.046 97.4461 138.876C96.969 138.775 96.7493 138.684 96.055 138.298C95.0914 137.762 94.5417 137.281 93.9575 136.462C93.4964 135.816 93.31 135.432 93.1161 134.729C92.1742 131.313 95.2743 128.936 98.6773 130.465C100.087 131.099 101.162 132.153 101.808 133.535C102.571 135.169 102.275 137.122 101.115 138.097ZM117.089 112.857C116.477 113.542 115.11 114.152 113.953 114.256C111.06 114.517 108.375 113.059 107.75 110.889C107.47 109.916 107.627 109.033 108.224 108.215C108.953 107.218 110.344 106.523 111.835 106.41C112.45 106.364 113.477 106.465 114.158 106.639C115.075 106.873 116.292 107.538 116.833 108.102C117.382 108.674 117.716 109.224 117.887 109.839C118.184 110.907 117.912 111.934 117.089 112.857ZM105.394 124.003C104.598 124.874 104.032 125.368 103.178 125.936C100 128.054 95.3256 128.873 91.171 128.04C90.081 127.822 89.4243 127.625 88.4914 127.236C86.6049 126.449 85.6524 125.573 85.3315 124.327C85.0606 123.276 85.2446 122.389 86.0109 121.053C86.5449 120.123 87.052 119.49 89.0382 117.275C91.2799 114.776 91.2139 114.883 92.5995 111.5C93.5213 109.25 94.0283 108.217 94.625 107.377C96.1471 105.232 98.072 104.648 100.255 105.669C101.353 106.182 102.566 107.108 103.638 108.251C106.437 111.235 107.944 115.453 107.505 119.068C107.317 120.608 107.069 121.308 106.206 122.731C105.828 123.356 105.462 123.928 105.394 124.003Z" fill="#ECA1A1"/>
</g>
</svg>
