<svg width="20" height="19" viewBox="0 0 20 19" fill="none" xmlns="http://www.w3.org/2000/svg">
<path id="paw 1 (Traced)" fill-rule="evenodd" clip-rule="evenodd" d="M4.90452 1.98703C4.27637 2.37676 3.8338 3.1463 3.70655 4.07009C3.56341 5.10935 3.82357 6.3569 4.37407 7.27091C5.07423 8.43343 6.10933 8.9979 7.05918 8.73516C7.40531 8.63938 7.61637 8.52405 7.8612 8.29682C8.86399 7.36622 9.0476 5.39015 8.28629 3.72186C7.76547 2.5805 6.86127 1.82309 5.9236 1.74272C5.65515 1.71969 5.13407 1.84462 4.90452 1.98703ZM10.4364 0.393523C9.65441 0.826166 9.16538 1.73822 9.09537 2.89452C8.9916 4.60853 9.90649 6.47202 11.138 7.0551C11.6359 7.29081 12.0518 7.3301 12.546 7.18815C13.4934 6.91594 14.1216 5.88249 14.1756 4.50734C14.218 3.42616 13.8505 2.20887 13.2327 1.38415C12.6763 0.641403 11.9182 0.207704 11.1892 0.215168C10.9784 0.217309 10.5875 0.309917 10.4364 0.393523ZM1.60756 8.40882C1.32121 8.60498 1.16501 8.77678 1.01485 9.06077C0.851885 9.36899 0.769145 9.7123 0.753692 10.1443C0.744525 10.4013 0.762835 10.5265 0.869708 10.9373C1.01803 11.5074 1.19097 11.8598 1.52946 12.2817C1.79668 12.6147 1.96646 12.7683 2.29585 12.975C3.89622 13.979 5.48194 12.778 5.14049 10.8205C4.99902 10.0096 4.60391 9.30323 3.98972 8.76305C3.26359 8.12446 2.244 7.97282 1.60756 8.40882ZM16.3161 4.22747C15.8943 4.43097 15.4155 5.02799 15.2175 5.59734C14.7224 7.02045 15.1181 8.60334 16.1317 9.25472C16.5858 9.54655 17.0501 9.60381 17.5363 9.42801C18.1298 9.2134 18.6547 8.61718 18.8987 7.88057C18.9995 7.57639 19.0779 7.04136 19.0761 6.66983C19.0737 6.17009 18.8918 5.45184 18.6763 5.09101C18.4575 4.72485 18.2228 4.47117 17.9348 4.28977C17.4348 3.97475 16.8838 3.95355 16.3161 4.22747ZM9.23672 8.42141C8.69868 8.68939 8.37884 8.89947 7.98534 9.24341C6.52034 10.5238 5.52016 12.7618 5.41646 14.9917C5.38924 15.5768 5.40581 15.9394 5.48412 16.4713C5.6425 17.547 5.96378 18.1642 6.55 18.5188C7.04507 18.8182 7.5145 18.8622 8.28282 18.6808C8.81826 18.5544 9.20052 18.3957 10.5645 17.733C12.104 16.9851 12.0417 17.002 13.9182 16.8236C15.1665 16.705 15.7496 16.6079 16.2477 16.4359C17.5181 15.9972 18.054 15.1138 17.8152 13.852C17.6951 13.2176 17.3817 12.4609 16.9415 11.7422C15.7921 9.86552 13.8597 8.45169 11.9855 8.11592C11.1867 7.97285 10.8038 7.9902 9.97881 8.20678C9.61695 8.30176 9.28302 8.39837 9.23672 8.42141Z" fill="white" fill-opacity="0.3"/>
</svg>
